<mxfile host="app.diagrams.net" modified="2024-02-25T09:59:17.240Z" agent="Mozilla/5.0 (Windows NT 10.0; Win64; x64) AppleWebKit/537.36 (KHTML, like Gecko) Chrome/121.0.0.0 Safari/537.36" etag="TFR42uTZBHd-VMRq7eFs" version="23.1.6" type="github">
  <diagram name="Page-1" id="IARmhmwRWrYvSxScTyv1">
    <mxGraphModel dx="2284" dy="738" grid="1" gridSize="10" guides="1" tooltips="1" connect="1" arrows="1" fold="1" page="1" pageScale="1" pageWidth="850" pageHeight="1100" math="0" shadow="0">
      <root>
        <mxCell id="0" />
        <mxCell id="1" parent="0" />
        <mxCell id="5jO4WN8r6YL3hr1aLw4D-2" value="" style="rounded=0;whiteSpace=wrap;html=1;" vertex="1" parent="1">
          <mxGeometry x="710" y="350" width="90" height="20" as="geometry" />
        </mxCell>
        <mxCell id="5jO4WN8r6YL3hr1aLw4D-3" value="" style="rounded=0;whiteSpace=wrap;html=1;" vertex="1" parent="1">
          <mxGeometry x="710" y="390" width="90" height="20" as="geometry" />
        </mxCell>
        <mxCell id="5jO4WN8r6YL3hr1aLw4D-4" value="" style="rounded=0;whiteSpace=wrap;html=1;" vertex="1" parent="1">
          <mxGeometry x="710" y="430" width="90" height="20" as="geometry" />
        </mxCell>
        <mxCell id="5jO4WN8r6YL3hr1aLw4D-5" value="" style="rounded=0;whiteSpace=wrap;html=1;" vertex="1" parent="1">
          <mxGeometry x="350" y="660" width="90" height="20" as="geometry" />
        </mxCell>
        <mxCell id="5jO4WN8r6YL3hr1aLw4D-6" value="" style="rounded=0;whiteSpace=wrap;html=1;" vertex="1" parent="1">
          <mxGeometry x="710" y="510" width="90" height="20" as="geometry" />
        </mxCell>
        <mxCell id="5jO4WN8r6YL3hr1aLw4D-8" value="" style="rounded=0;whiteSpace=wrap;html=1;" vertex="1" parent="1">
          <mxGeometry x="710" y="550" width="90" height="20" as="geometry" />
        </mxCell>
        <mxCell id="5jO4WN8r6YL3hr1aLw4D-9" value="" style="rounded=0;whiteSpace=wrap;html=1;" vertex="1" parent="1">
          <mxGeometry x="710" y="585" width="90" height="20" as="geometry" />
        </mxCell>
        <mxCell id="5jO4WN8r6YL3hr1aLw4D-10" value="" style="rounded=0;whiteSpace=wrap;html=1;" vertex="1" parent="1">
          <mxGeometry x="710" y="630" width="90" height="20" as="geometry" />
        </mxCell>
        <mxCell id="5jO4WN8r6YL3hr1aLw4D-12" value="" style="rounded=0;whiteSpace=wrap;html=1;" vertex="1" parent="1">
          <mxGeometry x="710" y="670" width="90" height="20" as="geometry" />
        </mxCell>
        <mxCell id="5jO4WN8r6YL3hr1aLw4D-13" value="" style="rounded=0;whiteSpace=wrap;html=1;" vertex="1" parent="1">
          <mxGeometry x="710" y="710" width="90" height="20" as="geometry" />
        </mxCell>
        <mxCell id="5jO4WN8r6YL3hr1aLw4D-15" value="" style="rounded=0;whiteSpace=wrap;html=1;" vertex="1" parent="1">
          <mxGeometry x="110" y="330" width="90" height="20" as="geometry" />
        </mxCell>
        <mxCell id="5jO4WN8r6YL3hr1aLw4D-16" value="" style="rounded=0;whiteSpace=wrap;html=1;" vertex="1" parent="1">
          <mxGeometry x="110" y="370" width="90" height="20" as="geometry" />
        </mxCell>
        <mxCell id="5jO4WN8r6YL3hr1aLw4D-17" value="" style="rounded=0;whiteSpace=wrap;html=1;" vertex="1" parent="1">
          <mxGeometry x="110" y="410" width="90" height="20" as="geometry" />
        </mxCell>
        <mxCell id="5jO4WN8r6YL3hr1aLw4D-18" value="" style="rounded=0;whiteSpace=wrap;html=1;" vertex="1" parent="1">
          <mxGeometry x="110" y="450" width="90" height="20" as="geometry" />
        </mxCell>
        <mxCell id="5jO4WN8r6YL3hr1aLw4D-19" value="" style="rounded=0;whiteSpace=wrap;html=1;" vertex="1" parent="1">
          <mxGeometry x="110" y="490" width="90" height="20" as="geometry" />
        </mxCell>
        <mxCell id="5jO4WN8r6YL3hr1aLw4D-20" value="" style="rounded=0;whiteSpace=wrap;html=1;" vertex="1" parent="1">
          <mxGeometry x="110" y="530" width="90" height="20" as="geometry" />
        </mxCell>
        <mxCell id="5jO4WN8r6YL3hr1aLw4D-21" value="" style="rounded=0;whiteSpace=wrap;html=1;" vertex="1" parent="1">
          <mxGeometry x="110" y="565" width="90" height="20" as="geometry" />
        </mxCell>
        <mxCell id="5jO4WN8r6YL3hr1aLw4D-22" value="" style="rounded=0;whiteSpace=wrap;html=1;" vertex="1" parent="1">
          <mxGeometry x="110" y="610" width="90" height="20" as="geometry" />
        </mxCell>
        <mxCell id="5jO4WN8r6YL3hr1aLw4D-23" value="" style="rounded=0;whiteSpace=wrap;html=1;" vertex="1" parent="1">
          <mxGeometry x="110" y="650" width="90" height="20" as="geometry" />
        </mxCell>
        <mxCell id="5jO4WN8r6YL3hr1aLw4D-24" value="" style="rounded=0;whiteSpace=wrap;html=1;" vertex="1" parent="1">
          <mxGeometry x="110" y="690" width="90" height="20" as="geometry" />
        </mxCell>
        <mxCell id="5jO4WN8r6YL3hr1aLw4D-25" value="" style="rounded=0;whiteSpace=wrap;html=1;" vertex="1" parent="1">
          <mxGeometry x="350" y="340" width="90" height="20" as="geometry" />
        </mxCell>
        <mxCell id="5jO4WN8r6YL3hr1aLw4D-26" value="" style="rounded=0;whiteSpace=wrap;html=1;" vertex="1" parent="1">
          <mxGeometry x="350" y="380" width="90" height="20" as="geometry" />
        </mxCell>
        <mxCell id="5jO4WN8r6YL3hr1aLw4D-27" value="" style="rounded=0;whiteSpace=wrap;html=1;" vertex="1" parent="1">
          <mxGeometry x="350" y="420" width="90" height="20" as="geometry" />
        </mxCell>
        <mxCell id="5jO4WN8r6YL3hr1aLw4D-28" value="" style="rounded=0;whiteSpace=wrap;html=1;" vertex="1" parent="1">
          <mxGeometry x="350" y="460" width="90" height="20" as="geometry" />
        </mxCell>
        <mxCell id="5jO4WN8r6YL3hr1aLw4D-29" value="" style="rounded=0;whiteSpace=wrap;html=1;" vertex="1" parent="1">
          <mxGeometry x="350" y="500" width="90" height="20" as="geometry" />
        </mxCell>
        <mxCell id="5jO4WN8r6YL3hr1aLw4D-30" value="" style="rounded=0;whiteSpace=wrap;html=1;" vertex="1" parent="1">
          <mxGeometry x="350" y="540" width="90" height="20" as="geometry" />
        </mxCell>
        <mxCell id="5jO4WN8r6YL3hr1aLw4D-31" value="" style="rounded=0;whiteSpace=wrap;html=1;" vertex="1" parent="1">
          <mxGeometry x="350" y="575" width="90" height="20" as="geometry" />
        </mxCell>
        <mxCell id="5jO4WN8r6YL3hr1aLw4D-32" value="" style="rounded=0;whiteSpace=wrap;html=1;" vertex="1" parent="1">
          <mxGeometry x="350" y="620" width="90" height="20" as="geometry" />
        </mxCell>
        <mxCell id="5jO4WN8r6YL3hr1aLw4D-33" value="" style="rounded=0;whiteSpace=wrap;html=1;" vertex="1" parent="1">
          <mxGeometry x="710" y="470" width="90" height="20" as="geometry" />
        </mxCell>
        <mxCell id="5jO4WN8r6YL3hr1aLw4D-34" value="" style="rounded=0;whiteSpace=wrap;html=1;" vertex="1" parent="1">
          <mxGeometry x="350" y="700" width="90" height="20" as="geometry" />
        </mxCell>
        <mxCell id="5jO4WN8r6YL3hr1aLw4D-37" style="edgeStyle=orthogonalEdgeStyle;rounded=0;orthogonalLoop=1;jettySize=auto;html=1;exitX=0.5;exitY=0;exitDx=0;exitDy=0;entryX=0.544;entryY=0.35;entryDx=0;entryDy=0;entryPerimeter=0;" edge="1" parent="1" source="5jO4WN8r6YL3hr1aLw4D-33" target="5jO4WN8r6YL3hr1aLw4D-33">
          <mxGeometry relative="1" as="geometry" />
        </mxCell>
        <mxCell id="5jO4WN8r6YL3hr1aLw4D-38" value="" style="rounded=0;whiteSpace=wrap;html=1;" vertex="1" parent="1">
          <mxGeometry x="460" y="660" width="90" height="20" as="geometry" />
        </mxCell>
        <mxCell id="5jO4WN8r6YL3hr1aLw4D-39" value="" style="rounded=0;whiteSpace=wrap;html=1;" vertex="1" parent="1">
          <mxGeometry x="460" y="340" width="90" height="20" as="geometry" />
        </mxCell>
        <mxCell id="5jO4WN8r6YL3hr1aLw4D-40" value="" style="rounded=0;whiteSpace=wrap;html=1;" vertex="1" parent="1">
          <mxGeometry x="460" y="380" width="90" height="20" as="geometry" />
        </mxCell>
        <mxCell id="5jO4WN8r6YL3hr1aLw4D-41" value="" style="rounded=0;whiteSpace=wrap;html=1;" vertex="1" parent="1">
          <mxGeometry x="460" y="420" width="90" height="20" as="geometry" />
        </mxCell>
        <mxCell id="5jO4WN8r6YL3hr1aLw4D-42" value="" style="rounded=0;whiteSpace=wrap;html=1;" vertex="1" parent="1">
          <mxGeometry x="460" y="460" width="90" height="20" as="geometry" />
        </mxCell>
        <mxCell id="5jO4WN8r6YL3hr1aLw4D-43" value="" style="rounded=0;whiteSpace=wrap;html=1;" vertex="1" parent="1">
          <mxGeometry x="460" y="500" width="90" height="20" as="geometry" />
        </mxCell>
        <mxCell id="5jO4WN8r6YL3hr1aLw4D-44" value="" style="rounded=0;whiteSpace=wrap;html=1;" vertex="1" parent="1">
          <mxGeometry x="460" y="540" width="90" height="20" as="geometry" />
        </mxCell>
        <mxCell id="5jO4WN8r6YL3hr1aLw4D-45" value="" style="rounded=0;whiteSpace=wrap;html=1;" vertex="1" parent="1">
          <mxGeometry x="460" y="575" width="90" height="20" as="geometry" />
        </mxCell>
        <mxCell id="5jO4WN8r6YL3hr1aLw4D-46" value="" style="rounded=0;whiteSpace=wrap;html=1;" vertex="1" parent="1">
          <mxGeometry x="460" y="620" width="90" height="20" as="geometry" />
        </mxCell>
        <mxCell id="5jO4WN8r6YL3hr1aLw4D-47" value="" style="rounded=0;whiteSpace=wrap;html=1;" vertex="1" parent="1">
          <mxGeometry x="460" y="700" width="90" height="20" as="geometry" />
        </mxCell>
        <mxCell id="5jO4WN8r6YL3hr1aLw4D-49" value="" style="rounded=0;whiteSpace=wrap;html=1;" vertex="1" parent="1">
          <mxGeometry x="160" y="170" width="20" height="90" as="geometry" />
        </mxCell>
        <mxCell id="5jO4WN8r6YL3hr1aLw4D-50" value="" style="rounded=0;whiteSpace=wrap;html=1;" vertex="1" parent="1">
          <mxGeometry x="200" y="170" width="20" height="90" as="geometry" />
        </mxCell>
        <mxCell id="5jO4WN8r6YL3hr1aLw4D-51" value="" style="rounded=0;whiteSpace=wrap;html=1;" vertex="1" parent="1">
          <mxGeometry x="240" y="170" width="20" height="90" as="geometry" />
        </mxCell>
        <mxCell id="5jO4WN8r6YL3hr1aLw4D-52" value="" style="rounded=0;whiteSpace=wrap;html=1;" vertex="1" parent="1">
          <mxGeometry x="280" y="170" width="20" height="90" as="geometry" />
        </mxCell>
        <mxCell id="5jO4WN8r6YL3hr1aLw4D-53" value="" style="rounded=0;whiteSpace=wrap;html=1;" vertex="1" parent="1">
          <mxGeometry x="320" y="170" width="20" height="90" as="geometry" />
        </mxCell>
        <mxCell id="5jO4WN8r6YL3hr1aLw4D-54" value="" style="rounded=0;whiteSpace=wrap;html=1;" vertex="1" parent="1">
          <mxGeometry x="360" y="170" width="20" height="90" as="geometry" />
        </mxCell>
        <mxCell id="5jO4WN8r6YL3hr1aLw4D-55" value="" style="rounded=0;whiteSpace=wrap;html=1;" vertex="1" parent="1">
          <mxGeometry x="400" y="170" width="20" height="90" as="geometry" />
        </mxCell>
        <mxCell id="5jO4WN8r6YL3hr1aLw4D-57" value="" style="rounded=0;whiteSpace=wrap;html=1;" vertex="1" parent="1">
          <mxGeometry x="480" y="170" width="20" height="90" as="geometry" />
        </mxCell>
        <mxCell id="5jO4WN8r6YL3hr1aLw4D-58" value="" style="rounded=0;whiteSpace=wrap;html=1;" vertex="1" parent="1">
          <mxGeometry x="520" y="170" width="20" height="90" as="geometry" />
        </mxCell>
        <mxCell id="5jO4WN8r6YL3hr1aLw4D-59" value="" style="rounded=0;whiteSpace=wrap;html=1;" vertex="1" parent="1">
          <mxGeometry x="560" y="170" width="20" height="90" as="geometry" />
        </mxCell>
        <mxCell id="5jO4WN8r6YL3hr1aLw4D-60" value="" style="rounded=0;whiteSpace=wrap;html=1;" vertex="1" parent="1">
          <mxGeometry x="600" y="170" width="20" height="90" as="geometry" />
        </mxCell>
        <mxCell id="5jO4WN8r6YL3hr1aLw4D-61" value="" style="rounded=0;whiteSpace=wrap;html=1;" vertex="1" parent="1">
          <mxGeometry x="640" y="170" width="20" height="90" as="geometry" />
        </mxCell>
        <mxCell id="5jO4WN8r6YL3hr1aLw4D-62" value="" style="rounded=0;whiteSpace=wrap;html=1;" vertex="1" parent="1">
          <mxGeometry x="680" y="170" width="20" height="90" as="geometry" />
        </mxCell>
        <mxCell id="5jO4WN8r6YL3hr1aLw4D-64" value="" style="rounded=0;whiteSpace=wrap;html=1;" vertex="1" parent="1">
          <mxGeometry x="710" y="310" width="90" height="20" as="geometry" />
        </mxCell>
        <mxCell id="5jO4WN8r6YL3hr1aLw4D-69" value="" style="rounded=0;whiteSpace=wrap;html=1;" vertex="1" parent="1">
          <mxGeometry x="110" y="740" width="90" height="20" as="geometry" />
        </mxCell>
        <mxCell id="5jO4WN8r6YL3hr1aLw4D-72" value="" style="endArrow=none;html=1;rounded=0;strokeColor=#FFCC99;strokeWidth=4;" edge="1" parent="1">
          <mxGeometry width="50" height="50" relative="1" as="geometry">
            <mxPoint x="170" y="140" as="sourcePoint" />
            <mxPoint x="690" y="140" as="targetPoint" />
            <Array as="points">
              <mxPoint x="450" y="140" />
            </Array>
          </mxGeometry>
        </mxCell>
        <mxCell id="5jO4WN8r6YL3hr1aLw4D-74" value="" style="endArrow=none;html=1;rounded=0;strokeColor=#FFCC99;strokeWidth=4;" edge="1" parent="1" source="5jO4WN8r6YL3hr1aLw4D-203">
          <mxGeometry width="50" height="50" relative="1" as="geometry">
            <mxPoint x="450" y="880" as="sourcePoint" />
            <mxPoint x="450" y="140" as="targetPoint" />
            <Array as="points" />
          </mxGeometry>
        </mxCell>
        <mxCell id="5jO4WN8r6YL3hr1aLw4D-75" value="" style="endArrow=none;html=1;rounded=0;strokeColor=#FFCC99;strokeWidth=4;" edge="1" parent="1">
          <mxGeometry width="50" height="50" relative="1" as="geometry">
            <mxPoint x="820" y="930" as="sourcePoint" />
            <mxPoint x="820" y="320" as="targetPoint" />
            <Array as="points" />
          </mxGeometry>
        </mxCell>
        <mxCell id="5jO4WN8r6YL3hr1aLw4D-76" value="" style="endArrow=none;html=1;rounded=0;strokeColor=#FFCC99;strokeWidth=4;" edge="1" parent="1">
          <mxGeometry width="50" height="50" relative="1" as="geometry">
            <mxPoint x="70" y="880" as="sourcePoint" />
            <mxPoint x="70" y="340" as="targetPoint" />
            <Array as="points" />
          </mxGeometry>
        </mxCell>
        <mxCell id="5jO4WN8r6YL3hr1aLw4D-77" value="" style="endArrow=none;html=1;rounded=0;strokeColor=#FFCC99;strokeWidth=4;" edge="1" parent="1">
          <mxGeometry width="50" height="50" relative="1" as="geometry">
            <mxPoint x="110" y="750" as="sourcePoint" />
            <mxPoint x="70" y="749.5" as="targetPoint" />
            <Array as="points" />
          </mxGeometry>
        </mxCell>
        <mxCell id="5jO4WN8r6YL3hr1aLw4D-79" value="" style="endArrow=none;html=1;rounded=0;strokeColor=#FFCC99;strokeWidth=4;" edge="1" parent="1">
          <mxGeometry width="50" height="50" relative="1" as="geometry">
            <mxPoint x="110" y="700.5" as="sourcePoint" />
            <mxPoint x="70" y="700" as="targetPoint" />
            <Array as="points" />
          </mxGeometry>
        </mxCell>
        <mxCell id="5jO4WN8r6YL3hr1aLw4D-80" value="" style="endArrow=none;html=1;rounded=0;strokeColor=#FFCC99;strokeWidth=4;" edge="1" parent="1">
          <mxGeometry width="50" height="50" relative="1" as="geometry">
            <mxPoint x="110" y="660" as="sourcePoint" />
            <mxPoint x="70" y="659.5" as="targetPoint" />
            <Array as="points" />
          </mxGeometry>
        </mxCell>
        <mxCell id="5jO4WN8r6YL3hr1aLw4D-81" value="" style="endArrow=none;html=1;rounded=0;strokeColor=#FFCC99;strokeWidth=4;" edge="1" parent="1">
          <mxGeometry width="50" height="50" relative="1" as="geometry">
            <mxPoint x="110" y="340.5" as="sourcePoint" />
            <mxPoint x="70" y="340" as="targetPoint" />
            <Array as="points" />
          </mxGeometry>
        </mxCell>
        <mxCell id="5jO4WN8r6YL3hr1aLw4D-82" value="" style="endArrow=none;html=1;rounded=0;strokeColor=#FFCC99;strokeWidth=4;" edge="1" parent="1">
          <mxGeometry width="50" height="50" relative="1" as="geometry">
            <mxPoint x="110" y="379.5" as="sourcePoint" />
            <mxPoint x="70" y="379" as="targetPoint" />
            <Array as="points" />
          </mxGeometry>
        </mxCell>
        <mxCell id="5jO4WN8r6YL3hr1aLw4D-83" value="" style="endArrow=none;html=1;rounded=0;strokeColor=#FFCC99;strokeWidth=4;" edge="1" parent="1">
          <mxGeometry width="50" height="50" relative="1" as="geometry">
            <mxPoint x="110" y="419.5" as="sourcePoint" />
            <mxPoint x="70" y="419" as="targetPoint" />
            <Array as="points" />
          </mxGeometry>
        </mxCell>
        <mxCell id="5jO4WN8r6YL3hr1aLw4D-84" value="" style="endArrow=none;html=1;rounded=0;strokeColor=#FFCC99;strokeWidth=4;" edge="1" parent="1">
          <mxGeometry width="50" height="50" relative="1" as="geometry">
            <mxPoint x="110" y="460.5" as="sourcePoint" />
            <mxPoint x="70" y="460" as="targetPoint" />
            <Array as="points" />
          </mxGeometry>
        </mxCell>
        <mxCell id="5jO4WN8r6YL3hr1aLw4D-85" value="" style="endArrow=none;html=1;rounded=0;strokeColor=#FFCC99;strokeWidth=4;" edge="1" parent="1">
          <mxGeometry width="50" height="50" relative="1" as="geometry">
            <mxPoint x="110" y="499.5" as="sourcePoint" />
            <mxPoint x="70" y="499" as="targetPoint" />
            <Array as="points" />
          </mxGeometry>
        </mxCell>
        <mxCell id="5jO4WN8r6YL3hr1aLw4D-86" value="" style="endArrow=none;html=1;rounded=0;strokeColor=#FFCC99;strokeWidth=4;" edge="1" parent="1">
          <mxGeometry width="50" height="50" relative="1" as="geometry">
            <mxPoint x="110" y="540.5" as="sourcePoint" />
            <mxPoint x="70" y="540" as="targetPoint" />
            <Array as="points" />
          </mxGeometry>
        </mxCell>
        <mxCell id="5jO4WN8r6YL3hr1aLw4D-87" value="" style="endArrow=none;html=1;rounded=0;strokeColor=#FFCC99;strokeWidth=4;" edge="1" parent="1">
          <mxGeometry width="50" height="50" relative="1" as="geometry">
            <mxPoint x="110" y="574.5" as="sourcePoint" />
            <mxPoint x="70" y="574" as="targetPoint" />
            <Array as="points" />
          </mxGeometry>
        </mxCell>
        <mxCell id="5jO4WN8r6YL3hr1aLw4D-88" value="" style="endArrow=none;html=1;rounded=0;strokeColor=#FFCC99;strokeWidth=4;" edge="1" parent="1">
          <mxGeometry width="50" height="50" relative="1" as="geometry">
            <mxPoint x="110" y="619.5" as="sourcePoint" />
            <mxPoint x="70" y="619" as="targetPoint" />
            <Array as="points" />
          </mxGeometry>
        </mxCell>
        <mxCell id="5jO4WN8r6YL3hr1aLw4D-90" value="" style="endArrow=none;html=1;rounded=0;strokeColor=#FFCC99;strokeWidth=4;" edge="1" parent="1">
          <mxGeometry width="50" height="50" relative="1" as="geometry">
            <mxPoint x="460" y="350.5" as="sourcePoint" />
            <mxPoint x="440" y="350" as="targetPoint" />
            <Array as="points" />
          </mxGeometry>
        </mxCell>
        <mxCell id="5jO4WN8r6YL3hr1aLw4D-93" value="" style="endArrow=none;html=1;rounded=0;strokeColor=#FFCC99;strokeWidth=4;" edge="1" parent="1">
          <mxGeometry width="50" height="50" relative="1" as="geometry">
            <mxPoint x="460" y="389.5" as="sourcePoint" />
            <mxPoint x="440" y="390" as="targetPoint" />
            <Array as="points" />
          </mxGeometry>
        </mxCell>
        <mxCell id="5jO4WN8r6YL3hr1aLw4D-94" value="" style="endArrow=none;html=1;rounded=0;strokeColor=#FFCC99;strokeWidth=4;" edge="1" parent="1">
          <mxGeometry width="50" height="50" relative="1" as="geometry">
            <mxPoint x="460" y="430" as="sourcePoint" />
            <mxPoint x="440" y="429.5" as="targetPoint" />
            <Array as="points" />
          </mxGeometry>
        </mxCell>
        <mxCell id="5jO4WN8r6YL3hr1aLw4D-95" value="" style="endArrow=none;html=1;rounded=0;strokeColor=#FFCC99;strokeWidth=4;" edge="1" parent="1">
          <mxGeometry width="50" height="50" relative="1" as="geometry">
            <mxPoint x="460" y="470" as="sourcePoint" />
            <mxPoint x="440" y="469.5" as="targetPoint" />
            <Array as="points" />
          </mxGeometry>
        </mxCell>
        <mxCell id="5jO4WN8r6YL3hr1aLw4D-96" value="" style="endArrow=none;html=1;rounded=0;strokeColor=#FFCC99;strokeWidth=4;" edge="1" parent="1">
          <mxGeometry width="50" height="50" relative="1" as="geometry">
            <mxPoint x="460" y="670.5" as="sourcePoint" />
            <mxPoint x="440" y="670" as="targetPoint" />
            <Array as="points" />
          </mxGeometry>
        </mxCell>
        <mxCell id="5jO4WN8r6YL3hr1aLw4D-97" value="" style="endArrow=none;html=1;rounded=0;strokeColor=#FFCC99;strokeWidth=4;" edge="1" parent="1">
          <mxGeometry width="50" height="50" relative="1" as="geometry">
            <mxPoint x="460" y="549.5" as="sourcePoint" />
            <mxPoint x="440" y="549" as="targetPoint" />
            <Array as="points" />
          </mxGeometry>
        </mxCell>
        <mxCell id="5jO4WN8r6YL3hr1aLw4D-98" value="" style="endArrow=none;html=1;rounded=0;strokeColor=#FFCC99;strokeWidth=4;" edge="1" parent="1">
          <mxGeometry width="50" height="50" relative="1" as="geometry">
            <mxPoint x="460" y="585.5" as="sourcePoint" />
            <mxPoint x="440" y="585" as="targetPoint" />
            <Array as="points" />
          </mxGeometry>
        </mxCell>
        <mxCell id="5jO4WN8r6YL3hr1aLw4D-99" value="" style="endArrow=none;html=1;rounded=0;strokeColor=#FFCC99;strokeWidth=4;" edge="1" parent="1">
          <mxGeometry width="50" height="50" relative="1" as="geometry">
            <mxPoint x="460" y="630.5" as="sourcePoint" />
            <mxPoint x="440" y="630" as="targetPoint" />
            <Array as="points" />
          </mxGeometry>
        </mxCell>
        <mxCell id="5jO4WN8r6YL3hr1aLw4D-100" value="" style="endArrow=none;html=1;rounded=0;strokeColor=#FFCC99;strokeWidth=4;" edge="1" parent="1">
          <mxGeometry width="50" height="50" relative="1" as="geometry">
            <mxPoint x="460" y="510" as="sourcePoint" />
            <mxPoint x="440" y="509.5" as="targetPoint" />
            <Array as="points" />
          </mxGeometry>
        </mxCell>
        <mxCell id="5jO4WN8r6YL3hr1aLw4D-101" value="" style="endArrow=none;html=1;rounded=0;strokeColor=#FFCC99;strokeWidth=4;" edge="1" parent="1">
          <mxGeometry width="50" height="50" relative="1" as="geometry">
            <mxPoint x="460" y="710.5" as="sourcePoint" />
            <mxPoint x="440" y="710" as="targetPoint" />
            <Array as="points" />
          </mxGeometry>
        </mxCell>
        <mxCell id="5jO4WN8r6YL3hr1aLw4D-102" value="Showers/Toilets/Laundry" style="rounded=1;whiteSpace=wrap;html=1;" vertex="1" parent="1">
          <mxGeometry x="180" y="820" width="170" height="50" as="geometry" />
        </mxCell>
        <mxCell id="5jO4WN8r6YL3hr1aLw4D-103" value="Water Tower" style="ellipse;whiteSpace=wrap;html=1;aspect=fixed;" vertex="1" parent="1">
          <mxGeometry x="715" y="760" width="80" height="80" as="geometry" />
        </mxCell>
        <mxCell id="5jO4WN8r6YL3hr1aLw4D-106" value="Mail" style="shape=table;startSize=30;container=1;collapsible=0;childLayout=tableLayout;strokeColor=default;fontSize=11;" vertex="1" parent="1">
          <mxGeometry x="580" y="850" width="30" height="20" as="geometry" />
        </mxCell>
        <mxCell id="5jO4WN8r6YL3hr1aLw4D-107" value="" style="shape=tableRow;horizontal=0;startSize=0;swimlaneHead=0;swimlaneBody=0;strokeColor=inherit;top=0;left=0;bottom=0;right=0;collapsible=0;dropTarget=0;fillColor=none;points=[[0,0.5],[1,0.5]];portConstraint=eastwest;fontSize=16;" vertex="1" visible="0" parent="5jO4WN8r6YL3hr1aLw4D-106">
          <mxGeometry y="30" width="30" height="3" as="geometry" />
        </mxCell>
        <mxCell id="5jO4WN8r6YL3hr1aLw4D-108" value="" style="shape=partialRectangle;html=1;whiteSpace=wrap;connectable=0;strokeColor=inherit;overflow=hidden;fillColor=none;top=0;left=0;bottom=0;right=0;pointerEvents=1;fontSize=16;" vertex="1" parent="5jO4WN8r6YL3hr1aLw4D-107">
          <mxGeometry width="10" height="3" as="geometry">
            <mxRectangle width="10" height="3" as="alternateBounds" />
          </mxGeometry>
        </mxCell>
        <mxCell id="5jO4WN8r6YL3hr1aLw4D-109" value="" style="shape=partialRectangle;html=1;whiteSpace=wrap;connectable=0;strokeColor=inherit;overflow=hidden;fillColor=none;top=0;left=0;bottom=0;right=0;pointerEvents=1;fontSize=16;" vertex="1" parent="5jO4WN8r6YL3hr1aLw4D-107">
          <mxGeometry x="10" width="10" height="3" as="geometry">
            <mxRectangle width="10" height="3" as="alternateBounds" />
          </mxGeometry>
        </mxCell>
        <mxCell id="5jO4WN8r6YL3hr1aLw4D-110" value="" style="shape=partialRectangle;html=1;whiteSpace=wrap;connectable=0;strokeColor=inherit;overflow=hidden;fillColor=none;top=0;left=0;bottom=0;right=0;pointerEvents=1;fontSize=16;" vertex="1" parent="5jO4WN8r6YL3hr1aLw4D-107">
          <mxGeometry x="20" width="10" height="3" as="geometry">
            <mxRectangle width="10" height="3" as="alternateBounds" />
          </mxGeometry>
        </mxCell>
        <mxCell id="5jO4WN8r6YL3hr1aLw4D-111" value="" style="shape=tableRow;horizontal=0;startSize=0;swimlaneHead=0;swimlaneBody=0;strokeColor=inherit;top=0;left=0;bottom=0;right=0;collapsible=0;dropTarget=0;fillColor=none;points=[[0,0.5],[1,0.5]];portConstraint=eastwest;fontSize=16;" vertex="1" visible="0" parent="5jO4WN8r6YL3hr1aLw4D-106">
          <mxGeometry y="33" width="30" height="4" as="geometry" />
        </mxCell>
        <mxCell id="5jO4WN8r6YL3hr1aLw4D-112" value="" style="shape=partialRectangle;html=1;whiteSpace=wrap;connectable=0;strokeColor=inherit;overflow=hidden;fillColor=none;top=0;left=0;bottom=0;right=0;pointerEvents=1;fontSize=16;" vertex="1" parent="5jO4WN8r6YL3hr1aLw4D-111">
          <mxGeometry width="10" height="4" as="geometry">
            <mxRectangle width="10" height="4" as="alternateBounds" />
          </mxGeometry>
        </mxCell>
        <mxCell id="5jO4WN8r6YL3hr1aLw4D-113" value="" style="shape=partialRectangle;html=1;whiteSpace=wrap;connectable=0;strokeColor=inherit;overflow=hidden;fillColor=none;top=0;left=0;bottom=0;right=0;pointerEvents=1;fontSize=16;" vertex="1" parent="5jO4WN8r6YL3hr1aLw4D-111">
          <mxGeometry x="10" width="10" height="4" as="geometry">
            <mxRectangle width="10" height="4" as="alternateBounds" />
          </mxGeometry>
        </mxCell>
        <mxCell id="5jO4WN8r6YL3hr1aLw4D-114" value="" style="shape=partialRectangle;html=1;whiteSpace=wrap;connectable=0;strokeColor=inherit;overflow=hidden;fillColor=none;top=0;left=0;bottom=0;right=0;pointerEvents=1;fontSize=16;" vertex="1" parent="5jO4WN8r6YL3hr1aLw4D-111">
          <mxGeometry x="20" width="10" height="4" as="geometry">
            <mxRectangle width="10" height="4" as="alternateBounds" />
          </mxGeometry>
        </mxCell>
        <mxCell id="5jO4WN8r6YL3hr1aLw4D-115" value="" style="shape=tableRow;horizontal=0;startSize=0;swimlaneHead=0;swimlaneBody=0;strokeColor=inherit;top=0;left=0;bottom=0;right=0;collapsible=0;dropTarget=0;fillColor=none;points=[[0,0.5],[1,0.5]];portConstraint=eastwest;fontSize=16;" vertex="1" visible="0" parent="5jO4WN8r6YL3hr1aLw4D-106">
          <mxGeometry y="37" width="30" height="3" as="geometry" />
        </mxCell>
        <mxCell id="5jO4WN8r6YL3hr1aLw4D-116" value="" style="shape=partialRectangle;html=1;whiteSpace=wrap;connectable=0;strokeColor=inherit;overflow=hidden;fillColor=none;top=0;left=0;bottom=0;right=0;pointerEvents=1;fontSize=16;" vertex="1" parent="5jO4WN8r6YL3hr1aLw4D-115">
          <mxGeometry width="10" height="3" as="geometry">
            <mxRectangle width="10" height="3" as="alternateBounds" />
          </mxGeometry>
        </mxCell>
        <mxCell id="5jO4WN8r6YL3hr1aLw4D-117" value="" style="shape=partialRectangle;html=1;whiteSpace=wrap;connectable=0;strokeColor=inherit;overflow=hidden;fillColor=none;top=0;left=0;bottom=0;right=0;pointerEvents=1;fontSize=16;" vertex="1" parent="5jO4WN8r6YL3hr1aLw4D-115">
          <mxGeometry x="10" width="10" height="3" as="geometry">
            <mxRectangle width="10" height="3" as="alternateBounds" />
          </mxGeometry>
        </mxCell>
        <mxCell id="5jO4WN8r6YL3hr1aLw4D-118" value="" style="shape=partialRectangle;html=1;whiteSpace=wrap;connectable=0;strokeColor=inherit;overflow=hidden;fillColor=none;top=0;left=0;bottom=0;right=0;pointerEvents=1;fontSize=16;" vertex="1" parent="5jO4WN8r6YL3hr1aLw4D-115">
          <mxGeometry x="20" width="10" height="3" as="geometry">
            <mxRectangle width="10" height="3" as="alternateBounds" />
          </mxGeometry>
        </mxCell>
        <mxCell id="5jO4WN8r6YL3hr1aLw4D-119" value="" style="endArrow=none;html=1;rounded=0;strokeColor=#FFCC99;strokeWidth=4;" edge="1" parent="1">
          <mxGeometry width="50" height="50" relative="1" as="geometry">
            <mxPoint x="820" y="320" as="sourcePoint" />
            <mxPoint x="800" y="319.5" as="targetPoint" />
            <Array as="points" />
          </mxGeometry>
        </mxCell>
        <mxCell id="5jO4WN8r6YL3hr1aLw4D-120" value="" style="endArrow=none;html=1;rounded=0;strokeColor=#FFCC99;strokeWidth=4;" edge="1" parent="1">
          <mxGeometry width="50" height="50" relative="1" as="geometry">
            <mxPoint x="820" y="595" as="sourcePoint" />
            <mxPoint x="800" y="595" as="targetPoint" />
            <Array as="points" />
          </mxGeometry>
        </mxCell>
        <mxCell id="5jO4WN8r6YL3hr1aLw4D-121" value="" style="endArrow=none;html=1;rounded=0;strokeColor=#FFCC99;strokeWidth=4;" edge="1" parent="1">
          <mxGeometry width="50" height="50" relative="1" as="geometry">
            <mxPoint x="820" y="559" as="sourcePoint" />
            <mxPoint x="800" y="559" as="targetPoint" />
            <Array as="points" />
          </mxGeometry>
        </mxCell>
        <mxCell id="5jO4WN8r6YL3hr1aLw4D-122" value="" style="endArrow=none;html=1;rounded=0;strokeColor=#FFCC99;strokeWidth=4;" edge="1" parent="1">
          <mxGeometry width="50" height="50" relative="1" as="geometry">
            <mxPoint x="820" y="519" as="sourcePoint" />
            <mxPoint x="800" y="519" as="targetPoint" />
            <Array as="points" />
          </mxGeometry>
        </mxCell>
        <mxCell id="5jO4WN8r6YL3hr1aLw4D-123" value="" style="endArrow=none;html=1;rounded=0;strokeColor=#FFCC99;strokeWidth=4;" edge="1" parent="1">
          <mxGeometry width="50" height="50" relative="1" as="geometry">
            <mxPoint x="820" y="480" as="sourcePoint" />
            <mxPoint x="800" y="480" as="targetPoint" />
            <Array as="points" />
          </mxGeometry>
        </mxCell>
        <mxCell id="5jO4WN8r6YL3hr1aLw4D-124" value="" style="endArrow=none;html=1;rounded=0;strokeColor=#FFCC99;strokeWidth=4;" edge="1" parent="1">
          <mxGeometry width="50" height="50" relative="1" as="geometry">
            <mxPoint x="820" y="439.5" as="sourcePoint" />
            <mxPoint x="800" y="439.5" as="targetPoint" />
            <Array as="points" />
          </mxGeometry>
        </mxCell>
        <mxCell id="5jO4WN8r6YL3hr1aLw4D-125" value="" style="endArrow=none;html=1;rounded=0;strokeColor=#FFCC99;strokeWidth=4;" edge="1" parent="1">
          <mxGeometry width="50" height="50" relative="1" as="geometry">
            <mxPoint x="820" y="399" as="sourcePoint" />
            <mxPoint x="800" y="399" as="targetPoint" />
            <Array as="points" />
          </mxGeometry>
        </mxCell>
        <mxCell id="5jO4WN8r6YL3hr1aLw4D-126" value="" style="endArrow=none;html=1;rounded=0;strokeColor=#FFCC99;strokeWidth=4;" edge="1" parent="1">
          <mxGeometry width="50" height="50" relative="1" as="geometry">
            <mxPoint x="820" y="360" as="sourcePoint" />
            <mxPoint x="800" y="360" as="targetPoint" />
            <Array as="points" />
          </mxGeometry>
        </mxCell>
        <mxCell id="5jO4WN8r6YL3hr1aLw4D-127" value="" style="endArrow=none;html=1;rounded=0;strokeColor=#FFCC99;strokeWidth=4;" edge="1" parent="1">
          <mxGeometry width="50" height="50" relative="1" as="geometry">
            <mxPoint x="820" y="720" as="sourcePoint" />
            <mxPoint x="800" y="720" as="targetPoint" />
            <Array as="points" />
          </mxGeometry>
        </mxCell>
        <mxCell id="5jO4WN8r6YL3hr1aLw4D-128" value="" style="endArrow=none;html=1;rounded=0;strokeColor=#FFCC99;strokeWidth=4;" edge="1" parent="1">
          <mxGeometry width="50" height="50" relative="1" as="geometry">
            <mxPoint x="820" y="680" as="sourcePoint" />
            <mxPoint x="800" y="680" as="targetPoint" />
            <Array as="points" />
          </mxGeometry>
        </mxCell>
        <mxCell id="5jO4WN8r6YL3hr1aLw4D-129" value="" style="endArrow=none;html=1;rounded=0;strokeColor=#FFCC99;strokeWidth=4;" edge="1" parent="1">
          <mxGeometry width="50" height="50" relative="1" as="geometry">
            <mxPoint x="820" y="640" as="sourcePoint" />
            <mxPoint x="800" y="640" as="targetPoint" />
            <Array as="points" />
          </mxGeometry>
        </mxCell>
        <mxCell id="5jO4WN8r6YL3hr1aLw4D-133" value="" style="endArrow=none;html=1;rounded=0;strokeColor=#FFCC99;strokeWidth=4;" edge="1" parent="1">
          <mxGeometry width="50" height="50" relative="1" as="geometry">
            <mxPoint x="820" y="880" as="sourcePoint" />
            <mxPoint x="70" y="880" as="targetPoint" />
            <Array as="points" />
          </mxGeometry>
        </mxCell>
        <mxCell id="5jO4WN8r6YL3hr1aLw4D-134" value="" style="endArrow=none;html=1;rounded=0;strokeColor=#FFCC99;strokeWidth=4;" edge="1" parent="1">
          <mxGeometry width="50" height="50" relative="1" as="geometry">
            <mxPoint x="169.5" y="170" as="sourcePoint" />
            <mxPoint x="169.5" y="140" as="targetPoint" />
            <Array as="points" />
          </mxGeometry>
        </mxCell>
        <mxCell id="5jO4WN8r6YL3hr1aLw4D-135" value="" style="endArrow=none;html=1;rounded=0;strokeColor=#FFCC99;strokeWidth=4;" edge="1" parent="1">
          <mxGeometry width="50" height="50" relative="1" as="geometry">
            <mxPoint x="289.5" y="170" as="sourcePoint" />
            <mxPoint x="289.5" y="140" as="targetPoint" />
            <Array as="points" />
          </mxGeometry>
        </mxCell>
        <mxCell id="5jO4WN8r6YL3hr1aLw4D-136" value="" style="endArrow=none;html=1;rounded=0;strokeColor=#FFCC99;strokeWidth=4;" edge="1" parent="1">
          <mxGeometry width="50" height="50" relative="1" as="geometry">
            <mxPoint x="529.5" y="170" as="sourcePoint" />
            <mxPoint x="529.5" y="140" as="targetPoint" />
            <Array as="points" />
          </mxGeometry>
        </mxCell>
        <mxCell id="5jO4WN8r6YL3hr1aLw4D-137" value="" style="endArrow=none;html=1;rounded=0;strokeColor=#FFCC99;strokeWidth=4;" edge="1" parent="1">
          <mxGeometry width="50" height="50" relative="1" as="geometry">
            <mxPoint x="569.5" y="170" as="sourcePoint" />
            <mxPoint x="569.5" y="140" as="targetPoint" />
            <Array as="points" />
          </mxGeometry>
        </mxCell>
        <mxCell id="5jO4WN8r6YL3hr1aLw4D-138" value="" style="endArrow=none;html=1;rounded=0;strokeColor=#FFCC99;strokeWidth=4;" edge="1" parent="1">
          <mxGeometry width="50" height="50" relative="1" as="geometry">
            <mxPoint x="609.5" y="170" as="sourcePoint" />
            <mxPoint x="609.5" y="140" as="targetPoint" />
            <Array as="points" />
          </mxGeometry>
        </mxCell>
        <mxCell id="5jO4WN8r6YL3hr1aLw4D-139" value="" style="endArrow=none;html=1;rounded=0;strokeColor=#FFCC99;strokeWidth=4;" edge="1" parent="1">
          <mxGeometry width="50" height="50" relative="1" as="geometry">
            <mxPoint x="649.5" y="170" as="sourcePoint" />
            <mxPoint x="649.5" y="140" as="targetPoint" />
            <Array as="points" />
          </mxGeometry>
        </mxCell>
        <mxCell id="5jO4WN8r6YL3hr1aLw4D-140" value="" style="endArrow=none;html=1;rounded=0;strokeColor=#FFCC99;strokeWidth=4;" edge="1" parent="1">
          <mxGeometry width="50" height="50" relative="1" as="geometry">
            <mxPoint x="689.5" y="170" as="sourcePoint" />
            <mxPoint x="689.5" y="140" as="targetPoint" />
            <Array as="points" />
          </mxGeometry>
        </mxCell>
        <mxCell id="5jO4WN8r6YL3hr1aLw4D-141" value="" style="endArrow=none;html=1;rounded=0;strokeColor=#FFCC99;strokeWidth=4;" edge="1" parent="1">
          <mxGeometry width="50" height="50" relative="1" as="geometry">
            <mxPoint x="489.5" y="170" as="sourcePoint" />
            <mxPoint x="489.5" y="140" as="targetPoint" />
            <Array as="points" />
          </mxGeometry>
        </mxCell>
        <mxCell id="5jO4WN8r6YL3hr1aLw4D-142" value="" style="endArrow=none;html=1;rounded=0;strokeColor=#FFCC99;strokeWidth=4;" edge="1" parent="1">
          <mxGeometry width="50" height="50" relative="1" as="geometry">
            <mxPoint x="329.5" y="170" as="sourcePoint" />
            <mxPoint x="329.5" y="140" as="targetPoint" />
            <Array as="points" />
          </mxGeometry>
        </mxCell>
        <mxCell id="5jO4WN8r6YL3hr1aLw4D-143" value="" style="endArrow=none;html=1;rounded=0;strokeColor=#FFCC99;strokeWidth=4;" edge="1" parent="1">
          <mxGeometry width="50" height="50" relative="1" as="geometry">
            <mxPoint x="369" y="170" as="sourcePoint" />
            <mxPoint x="369" y="140" as="targetPoint" />
            <Array as="points" />
          </mxGeometry>
        </mxCell>
        <mxCell id="5jO4WN8r6YL3hr1aLw4D-144" value="" style="endArrow=none;html=1;rounded=0;strokeColor=#FFCC99;strokeWidth=4;" edge="1" parent="1">
          <mxGeometry width="50" height="50" relative="1" as="geometry">
            <mxPoint x="409.5" y="170" as="sourcePoint" />
            <mxPoint x="409.5" y="140" as="targetPoint" />
            <Array as="points" />
          </mxGeometry>
        </mxCell>
        <mxCell id="5jO4WN8r6YL3hr1aLw4D-145" value="" style="endArrow=none;html=1;rounded=0;strokeColor=#FFCC99;strokeWidth=4;" edge="1" parent="1">
          <mxGeometry width="50" height="50" relative="1" as="geometry">
            <mxPoint x="249.5" y="170" as="sourcePoint" />
            <mxPoint x="249.5" y="140" as="targetPoint" />
            <Array as="points" />
          </mxGeometry>
        </mxCell>
        <mxCell id="5jO4WN8r6YL3hr1aLw4D-146" value="" style="endArrow=none;html=1;rounded=0;strokeColor=#FFCC99;strokeWidth=4;" edge="1" parent="1">
          <mxGeometry width="50" height="50" relative="1" as="geometry">
            <mxPoint x="209.5" y="170" as="sourcePoint" />
            <mxPoint x="209.5" y="140" as="targetPoint" />
            <Array as="points" />
          </mxGeometry>
        </mxCell>
        <mxCell id="5jO4WN8r6YL3hr1aLw4D-147" value="" style="endArrow=none;html=1;rounded=0;strokeWidth=4;strokeColor=#3399FF;exitX=0.5;exitY=1;exitDx=0;exitDy=0;" edge="1" parent="1" source="5jO4WN8r6YL3hr1aLw4D-103">
          <mxGeometry width="50" height="50" relative="1" as="geometry">
            <mxPoint x="754.5" y="860" as="sourcePoint" />
            <mxPoint x="754.5" y="930" as="targetPoint" />
          </mxGeometry>
        </mxCell>
        <mxCell id="5jO4WN8r6YL3hr1aLw4D-148" value="" style="endArrow=none;html=1;rounded=0;strokeWidth=4;strokeColor=#3399FF;" edge="1" parent="1">
          <mxGeometry width="50" height="50" relative="1" as="geometry">
            <mxPoint x="640" y="290" as="sourcePoint" />
            <mxPoint x="640" y="770" as="targetPoint" />
          </mxGeometry>
        </mxCell>
        <mxCell id="5jO4WN8r6YL3hr1aLw4D-149" value="" style="endArrow=none;html=1;rounded=0;strokeWidth=4;strokeColor=#3399FF;" edge="1" parent="1">
          <mxGeometry width="50" height="50" relative="1" as="geometry">
            <mxPoint x="270" y="340" as="sourcePoint" />
            <mxPoint x="270" y="800" as="targetPoint" />
          </mxGeometry>
        </mxCell>
        <mxCell id="5jO4WN8r6YL3hr1aLw4D-150" value="" style="endArrow=none;html=1;rounded=0;strokeWidth=4;strokeColor=#3399FF;" edge="1" parent="1">
          <mxGeometry width="50" height="50" relative="1" as="geometry">
            <mxPoint x="170" y="290" as="sourcePoint" />
            <mxPoint x="690" y="290" as="targetPoint" />
          </mxGeometry>
        </mxCell>
        <mxCell id="5jO4WN8r6YL3hr1aLw4D-151" value="" style="endArrow=none;html=1;rounded=0;strokeWidth=4;strokeColor=#3399FF;" edge="1" parent="1">
          <mxGeometry width="50" height="50" relative="1" as="geometry">
            <mxPoint x="270" y="800" as="sourcePoint" />
            <mxPoint x="715" y="799.5" as="targetPoint" />
          </mxGeometry>
        </mxCell>
        <mxCell id="5jO4WN8r6YL3hr1aLw4D-152" value="" style="endArrow=none;html=1;rounded=0;strokeWidth=4;strokeColor=#3399FF;" edge="1" parent="1">
          <mxGeometry width="50" height="50" relative="1" as="geometry">
            <mxPoint x="640" y="770" as="sourcePoint" />
            <mxPoint x="730" y="770" as="targetPoint" />
          </mxGeometry>
        </mxCell>
        <mxCell id="5jO4WN8r6YL3hr1aLw4D-153" value="" style="endArrow=none;html=1;rounded=0;strokeWidth=4;strokeColor=#3399FF;" edge="1" parent="1">
          <mxGeometry width="50" height="50" relative="1" as="geometry">
            <mxPoint x="200" y="340" as="sourcePoint" />
            <mxPoint x="270" y="340" as="targetPoint" />
          </mxGeometry>
        </mxCell>
        <mxCell id="5jO4WN8r6YL3hr1aLw4D-154" value="" style="endArrow=none;html=1;rounded=0;strokeWidth=4;strokeColor=#3399FF;" edge="1" parent="1">
          <mxGeometry width="50" height="50" relative="1" as="geometry">
            <mxPoint x="200" y="379.5" as="sourcePoint" />
            <mxPoint x="270" y="379.5" as="targetPoint" />
          </mxGeometry>
        </mxCell>
        <mxCell id="5jO4WN8r6YL3hr1aLw4D-155" value="" style="endArrow=none;html=1;rounded=0;strokeWidth=4;strokeColor=#3399FF;" edge="1" parent="1">
          <mxGeometry width="50" height="50" relative="1" as="geometry">
            <mxPoint x="200" y="419" as="sourcePoint" />
            <mxPoint x="270" y="419" as="targetPoint" />
          </mxGeometry>
        </mxCell>
        <mxCell id="5jO4WN8r6YL3hr1aLw4D-156" value="" style="endArrow=none;html=1;rounded=0;strokeWidth=4;strokeColor=#3399FF;" edge="1" parent="1">
          <mxGeometry width="50" height="50" relative="1" as="geometry">
            <mxPoint x="200" y="460" as="sourcePoint" />
            <mxPoint x="270" y="460" as="targetPoint" />
          </mxGeometry>
        </mxCell>
        <mxCell id="5jO4WN8r6YL3hr1aLw4D-157" value="" style="endArrow=none;html=1;rounded=0;strokeWidth=4;strokeColor=#3399FF;" edge="1" parent="1">
          <mxGeometry width="50" height="50" relative="1" as="geometry">
            <mxPoint x="200" y="499.5" as="sourcePoint" />
            <mxPoint x="270" y="499.5" as="targetPoint" />
          </mxGeometry>
        </mxCell>
        <mxCell id="5jO4WN8r6YL3hr1aLw4D-158" value="" style="endArrow=none;html=1;rounded=0;strokeWidth=4;strokeColor=#3399FF;" edge="1" parent="1">
          <mxGeometry width="50" height="50" relative="1" as="geometry">
            <mxPoint x="200" y="540" as="sourcePoint" />
            <mxPoint x="270" y="540" as="targetPoint" />
          </mxGeometry>
        </mxCell>
        <mxCell id="5jO4WN8r6YL3hr1aLw4D-159" value="" style="endArrow=none;html=1;rounded=0;strokeWidth=4;strokeColor=#3399FF;" edge="1" parent="1">
          <mxGeometry width="50" height="50" relative="1" as="geometry">
            <mxPoint x="200" y="575" as="sourcePoint" />
            <mxPoint x="270" y="575" as="targetPoint" />
          </mxGeometry>
        </mxCell>
        <mxCell id="5jO4WN8r6YL3hr1aLw4D-160" value="" style="endArrow=none;html=1;rounded=0;strokeWidth=4;strokeColor=#3399FF;" edge="1" parent="1">
          <mxGeometry width="50" height="50" relative="1" as="geometry">
            <mxPoint x="200" y="619" as="sourcePoint" />
            <mxPoint x="270" y="619" as="targetPoint" />
          </mxGeometry>
        </mxCell>
        <mxCell id="5jO4WN8r6YL3hr1aLw4D-161" value="" style="endArrow=none;html=1;rounded=0;strokeWidth=4;strokeColor=#3399FF;" edge="1" parent="1">
          <mxGeometry width="50" height="50" relative="1" as="geometry">
            <mxPoint x="200" y="659.5" as="sourcePoint" />
            <mxPoint x="270" y="659.5" as="targetPoint" />
          </mxGeometry>
        </mxCell>
        <mxCell id="5jO4WN8r6YL3hr1aLw4D-162" value="" style="endArrow=none;html=1;rounded=0;strokeWidth=4;strokeColor=#3399FF;" edge="1" parent="1">
          <mxGeometry width="50" height="50" relative="1" as="geometry">
            <mxPoint x="200" y="700" as="sourcePoint" />
            <mxPoint x="270" y="700" as="targetPoint" />
          </mxGeometry>
        </mxCell>
        <mxCell id="5jO4WN8r6YL3hr1aLw4D-163" value="" style="endArrow=none;html=1;rounded=0;strokeWidth=4;strokeColor=#3399FF;" edge="1" parent="1">
          <mxGeometry width="50" height="50" relative="1" as="geometry">
            <mxPoint x="200" y="749.5" as="sourcePoint" />
            <mxPoint x="270" y="749.5" as="targetPoint" />
          </mxGeometry>
        </mxCell>
        <mxCell id="5jO4WN8r6YL3hr1aLw4D-164" value="" style="endArrow=none;html=1;rounded=0;strokeWidth=4;strokeColor=#3399FF;" edge="1" parent="1">
          <mxGeometry width="50" height="50" relative="1" as="geometry">
            <mxPoint x="169.5" y="260" as="sourcePoint" />
            <mxPoint x="169.5" y="290" as="targetPoint" />
            <Array as="points">
              <mxPoint x="169.5" y="280" />
            </Array>
          </mxGeometry>
        </mxCell>
        <mxCell id="5jO4WN8r6YL3hr1aLw4D-165" value="" style="endArrow=none;html=1;rounded=0;strokeWidth=4;strokeColor=#3399FF;" edge="1" parent="1">
          <mxGeometry width="50" height="50" relative="1" as="geometry">
            <mxPoint x="300" y="800" as="sourcePoint" />
            <mxPoint x="300" y="820" as="targetPoint" />
          </mxGeometry>
        </mxCell>
        <mxCell id="5jO4WN8r6YL3hr1aLw4D-166" value="" style="endArrow=none;html=1;rounded=0;strokeWidth=4;strokeColor=#3399FF;entryX=0;entryY=0.5;entryDx=0;entryDy=0;" edge="1" parent="1" target="5jO4WN8r6YL3hr1aLw4D-25">
          <mxGeometry width="50" height="50" relative="1" as="geometry">
            <mxPoint x="270" y="349" as="sourcePoint" />
            <mxPoint x="340" y="349" as="targetPoint" />
          </mxGeometry>
        </mxCell>
        <mxCell id="5jO4WN8r6YL3hr1aLw4D-167" value="" style="endArrow=none;html=1;rounded=0;strokeWidth=4;strokeColor=#3399FF;entryX=0;entryY=0.5;entryDx=0;entryDy=0;" edge="1" parent="1">
          <mxGeometry width="50" height="50" relative="1" as="geometry">
            <mxPoint x="270" y="390" as="sourcePoint" />
            <mxPoint x="350" y="391" as="targetPoint" />
          </mxGeometry>
        </mxCell>
        <mxCell id="5jO4WN8r6YL3hr1aLw4D-168" value="" style="endArrow=none;html=1;rounded=0;strokeWidth=4;strokeColor=#3399FF;entryX=0;entryY=0.5;entryDx=0;entryDy=0;" edge="1" parent="1">
          <mxGeometry width="50" height="50" relative="1" as="geometry">
            <mxPoint x="270" y="430" as="sourcePoint" />
            <mxPoint x="350" y="431" as="targetPoint" />
          </mxGeometry>
        </mxCell>
        <mxCell id="5jO4WN8r6YL3hr1aLw4D-169" value="" style="endArrow=none;html=1;rounded=0;strokeWidth=4;strokeColor=#3399FF;entryX=0;entryY=0.5;entryDx=0;entryDy=0;" edge="1" parent="1">
          <mxGeometry width="50" height="50" relative="1" as="geometry">
            <mxPoint x="270" y="469.5" as="sourcePoint" />
            <mxPoint x="350" y="470.5" as="targetPoint" />
          </mxGeometry>
        </mxCell>
        <mxCell id="5jO4WN8r6YL3hr1aLw4D-170" value="" style="endArrow=none;html=1;rounded=0;strokeWidth=4;strokeColor=#3399FF;entryX=0;entryY=0.5;entryDx=0;entryDy=0;" edge="1" parent="1">
          <mxGeometry width="50" height="50" relative="1" as="geometry">
            <mxPoint x="270" y="509" as="sourcePoint" />
            <mxPoint x="350" y="510" as="targetPoint" />
          </mxGeometry>
        </mxCell>
        <mxCell id="5jO4WN8r6YL3hr1aLw4D-171" value="" style="endArrow=none;html=1;rounded=0;strokeWidth=4;strokeColor=#3399FF;entryX=0;entryY=0.5;entryDx=0;entryDy=0;" edge="1" parent="1">
          <mxGeometry width="50" height="50" relative="1" as="geometry">
            <mxPoint x="270" y="549" as="sourcePoint" />
            <mxPoint x="350" y="550" as="targetPoint" />
          </mxGeometry>
        </mxCell>
        <mxCell id="5jO4WN8r6YL3hr1aLw4D-172" value="" style="endArrow=none;html=1;rounded=0;strokeWidth=4;strokeColor=#3399FF;entryX=0;entryY=0.5;entryDx=0;entryDy=0;" edge="1" parent="1">
          <mxGeometry width="50" height="50" relative="1" as="geometry">
            <mxPoint x="270" y="584" as="sourcePoint" />
            <mxPoint x="350" y="585" as="targetPoint" />
          </mxGeometry>
        </mxCell>
        <mxCell id="5jO4WN8r6YL3hr1aLw4D-173" value="" style="endArrow=none;html=1;rounded=0;strokeWidth=4;strokeColor=#3399FF;entryX=0;entryY=0.5;entryDx=0;entryDy=0;" edge="1" parent="1">
          <mxGeometry width="50" height="50" relative="1" as="geometry">
            <mxPoint x="270" y="630" as="sourcePoint" />
            <mxPoint x="350" y="631" as="targetPoint" />
          </mxGeometry>
        </mxCell>
        <mxCell id="5jO4WN8r6YL3hr1aLw4D-174" value="" style="endArrow=none;html=1;rounded=0;strokeWidth=4;strokeColor=#3399FF;entryX=0;entryY=0.5;entryDx=0;entryDy=0;" edge="1" parent="1">
          <mxGeometry width="50" height="50" relative="1" as="geometry">
            <mxPoint x="270" y="669" as="sourcePoint" />
            <mxPoint x="350" y="670" as="targetPoint" />
          </mxGeometry>
        </mxCell>
        <mxCell id="5jO4WN8r6YL3hr1aLw4D-175" value="" style="endArrow=none;html=1;rounded=0;strokeWidth=4;strokeColor=#3399FF;entryX=0;entryY=0.5;entryDx=0;entryDy=0;" edge="1" parent="1">
          <mxGeometry width="50" height="50" relative="1" as="geometry">
            <mxPoint x="270" y="710" as="sourcePoint" />
            <mxPoint x="350" y="711" as="targetPoint" />
          </mxGeometry>
        </mxCell>
        <mxCell id="5jO4WN8r6YL3hr1aLw4D-176" value="" style="endArrow=none;html=1;rounded=0;strokeWidth=4;strokeColor=#3399FF;" edge="1" parent="1">
          <mxGeometry width="50" height="50" relative="1" as="geometry">
            <mxPoint x="550" y="349" as="sourcePoint" />
            <mxPoint x="640" y="350" as="targetPoint" />
          </mxGeometry>
        </mxCell>
        <mxCell id="5jO4WN8r6YL3hr1aLw4D-177" value="" style="endArrow=none;html=1;rounded=0;strokeWidth=4;strokeColor=#3399FF;" edge="1" parent="1">
          <mxGeometry width="50" height="50" relative="1" as="geometry">
            <mxPoint x="550" y="389.5" as="sourcePoint" />
            <mxPoint x="640" y="390.5" as="targetPoint" />
          </mxGeometry>
        </mxCell>
        <mxCell id="5jO4WN8r6YL3hr1aLw4D-178" value="" style="endArrow=none;html=1;rounded=0;strokeWidth=4;strokeColor=#3399FF;" edge="1" parent="1">
          <mxGeometry width="50" height="50" relative="1" as="geometry">
            <mxPoint x="550" y="429" as="sourcePoint" />
            <mxPoint x="640" y="430" as="targetPoint" />
          </mxGeometry>
        </mxCell>
        <mxCell id="5jO4WN8r6YL3hr1aLw4D-179" value="" style="endArrow=none;html=1;rounded=0;strokeWidth=4;strokeColor=#3399FF;" edge="1" parent="1">
          <mxGeometry width="50" height="50" relative="1" as="geometry">
            <mxPoint x="550" y="469" as="sourcePoint" />
            <mxPoint x="640" y="470" as="targetPoint" />
          </mxGeometry>
        </mxCell>
        <mxCell id="5jO4WN8r6YL3hr1aLw4D-180" value="" style="endArrow=none;html=1;rounded=0;strokeWidth=4;strokeColor=#3399FF;" edge="1" parent="1">
          <mxGeometry width="50" height="50" relative="1" as="geometry">
            <mxPoint x="550" y="509.5" as="sourcePoint" />
            <mxPoint x="640" y="510.5" as="targetPoint" />
          </mxGeometry>
        </mxCell>
        <mxCell id="5jO4WN8r6YL3hr1aLw4D-181" value="" style="endArrow=none;html=1;rounded=0;strokeWidth=4;strokeColor=#3399FF;" edge="1" parent="1">
          <mxGeometry width="50" height="50" relative="1" as="geometry">
            <mxPoint x="550" y="550" as="sourcePoint" />
            <mxPoint x="640" y="551" as="targetPoint" />
          </mxGeometry>
        </mxCell>
        <mxCell id="5jO4WN8r6YL3hr1aLw4D-182" value="" style="endArrow=none;html=1;rounded=0;strokeWidth=4;strokeColor=#3399FF;" edge="1" parent="1">
          <mxGeometry width="50" height="50" relative="1" as="geometry">
            <mxPoint x="550" y="585" as="sourcePoint" />
            <mxPoint x="640" y="586" as="targetPoint" />
          </mxGeometry>
        </mxCell>
        <mxCell id="5jO4WN8r6YL3hr1aLw4D-183" value="" style="endArrow=none;html=1;rounded=0;strokeWidth=4;strokeColor=#3399FF;" edge="1" parent="1">
          <mxGeometry width="50" height="50" relative="1" as="geometry">
            <mxPoint x="550" y="630" as="sourcePoint" />
            <mxPoint x="640" y="631" as="targetPoint" />
          </mxGeometry>
        </mxCell>
        <mxCell id="5jO4WN8r6YL3hr1aLw4D-184" value="" style="endArrow=none;html=1;rounded=0;strokeWidth=4;strokeColor=#3399FF;" edge="1" parent="1">
          <mxGeometry width="50" height="50" relative="1" as="geometry">
            <mxPoint x="550" y="670" as="sourcePoint" />
            <mxPoint x="640" y="671" as="targetPoint" />
          </mxGeometry>
        </mxCell>
        <mxCell id="5jO4WN8r6YL3hr1aLw4D-185" value="" style="endArrow=none;html=1;rounded=0;strokeWidth=4;strokeColor=#3399FF;" edge="1" parent="1">
          <mxGeometry width="50" height="50" relative="1" as="geometry">
            <mxPoint x="550" y="710" as="sourcePoint" />
            <mxPoint x="640" y="711" as="targetPoint" />
          </mxGeometry>
        </mxCell>
        <mxCell id="5jO4WN8r6YL3hr1aLw4D-186" value="" style="endArrow=none;html=1;rounded=0;strokeWidth=4;strokeColor=#3399FF;" edge="1" parent="1">
          <mxGeometry width="50" height="50" relative="1" as="geometry">
            <mxPoint x="640" y="719" as="sourcePoint" />
            <mxPoint x="710" y="720" as="targetPoint" />
          </mxGeometry>
        </mxCell>
        <mxCell id="5jO4WN8r6YL3hr1aLw4D-187" value="" style="endArrow=none;html=1;rounded=0;strokeWidth=4;strokeColor=#3399FF;" edge="1" parent="1">
          <mxGeometry width="50" height="50" relative="1" as="geometry">
            <mxPoint x="640" y="319.5" as="sourcePoint" />
            <mxPoint x="710" y="320.5" as="targetPoint" />
          </mxGeometry>
        </mxCell>
        <mxCell id="5jO4WN8r6YL3hr1aLw4D-188" value="" style="endArrow=none;html=1;rounded=0;strokeWidth=4;strokeColor=#3399FF;" edge="1" parent="1">
          <mxGeometry width="50" height="50" relative="1" as="geometry">
            <mxPoint x="640" y="360" as="sourcePoint" />
            <mxPoint x="710" y="361" as="targetPoint" />
          </mxGeometry>
        </mxCell>
        <mxCell id="5jO4WN8r6YL3hr1aLw4D-189" value="" style="endArrow=none;html=1;rounded=0;strokeWidth=4;strokeColor=#3399FF;" edge="1" parent="1">
          <mxGeometry width="50" height="50" relative="1" as="geometry">
            <mxPoint x="640" y="399.5" as="sourcePoint" />
            <mxPoint x="710" y="400.5" as="targetPoint" />
          </mxGeometry>
        </mxCell>
        <mxCell id="5jO4WN8r6YL3hr1aLw4D-190" value="" style="endArrow=none;html=1;rounded=0;strokeWidth=4;strokeColor=#3399FF;" edge="1" parent="1">
          <mxGeometry width="50" height="50" relative="1" as="geometry">
            <mxPoint x="640" y="439" as="sourcePoint" />
            <mxPoint x="710" y="440" as="targetPoint" />
          </mxGeometry>
        </mxCell>
        <mxCell id="5jO4WN8r6YL3hr1aLw4D-191" value="" style="endArrow=none;html=1;rounded=0;strokeWidth=4;strokeColor=#3399FF;" edge="1" parent="1">
          <mxGeometry width="50" height="50" relative="1" as="geometry">
            <mxPoint x="640" y="479" as="sourcePoint" />
            <mxPoint x="710" y="480" as="targetPoint" />
          </mxGeometry>
        </mxCell>
        <mxCell id="5jO4WN8r6YL3hr1aLw4D-192" value="" style="endArrow=none;html=1;rounded=0;strokeWidth=4;strokeColor=#3399FF;" edge="1" parent="1">
          <mxGeometry width="50" height="50" relative="1" as="geometry">
            <mxPoint x="640" y="520" as="sourcePoint" />
            <mxPoint x="710" y="521" as="targetPoint" />
          </mxGeometry>
        </mxCell>
        <mxCell id="5jO4WN8r6YL3hr1aLw4D-193" value="" style="endArrow=none;html=1;rounded=0;strokeWidth=4;strokeColor=#3399FF;" edge="1" parent="1">
          <mxGeometry width="50" height="50" relative="1" as="geometry">
            <mxPoint x="640" y="560" as="sourcePoint" />
            <mxPoint x="710" y="561" as="targetPoint" />
          </mxGeometry>
        </mxCell>
        <mxCell id="5jO4WN8r6YL3hr1aLw4D-194" value="" style="endArrow=none;html=1;rounded=0;strokeWidth=4;strokeColor=#3399FF;" edge="1" parent="1">
          <mxGeometry width="50" height="50" relative="1" as="geometry">
            <mxPoint x="640" y="595" as="sourcePoint" />
            <mxPoint x="710" y="596" as="targetPoint" />
          </mxGeometry>
        </mxCell>
        <mxCell id="5jO4WN8r6YL3hr1aLw4D-195" value="" style="endArrow=none;html=1;rounded=0;strokeWidth=4;strokeColor=#3399FF;" edge="1" parent="1">
          <mxGeometry width="50" height="50" relative="1" as="geometry">
            <mxPoint x="640" y="639" as="sourcePoint" />
            <mxPoint x="710" y="640" as="targetPoint" />
          </mxGeometry>
        </mxCell>
        <mxCell id="5jO4WN8r6YL3hr1aLw4D-196" value="" style="endArrow=none;html=1;rounded=0;strokeWidth=4;strokeColor=#3399FF;" edge="1" parent="1">
          <mxGeometry width="50" height="50" relative="1" as="geometry">
            <mxPoint x="640" y="679" as="sourcePoint" />
            <mxPoint x="710" y="680" as="targetPoint" />
          </mxGeometry>
        </mxCell>
        <mxCell id="5jO4WN8r6YL3hr1aLw4D-197" value="Trash Point" style="shape=ext;double=1;whiteSpace=wrap;html=1;aspect=fixed;direction=west;rotation=45;" vertex="1" parent="1">
          <mxGeometry x="740" y="215" width="45" height="45" as="geometry" />
        </mxCell>
        <mxCell id="5jO4WN8r6YL3hr1aLw4D-202" value="Trash Point" style="shape=ext;double=1;whiteSpace=wrap;html=1;aspect=fixed;rotation=-45;" vertex="1" parent="1">
          <mxGeometry x="80" y="240" width="45" height="45" as="geometry" />
        </mxCell>
        <mxCell id="5jO4WN8r6YL3hr1aLw4D-204" value="" style="endArrow=none;html=1;rounded=0;strokeColor=#FFCC99;strokeWidth=4;" edge="1" parent="1" target="5jO4WN8r6YL3hr1aLw4D-203">
          <mxGeometry width="50" height="50" relative="1" as="geometry">
            <mxPoint x="450" y="880" as="sourcePoint" />
            <mxPoint x="450" y="140" as="targetPoint" />
            <Array as="points" />
          </mxGeometry>
        </mxCell>
        <mxCell id="5jO4WN8r6YL3hr1aLw4D-205" value="" style="endArrow=none;html=1;rounded=0;strokeWidth=4;strokeColor=#3399FF;" edge="1" parent="1">
          <mxGeometry width="50" height="50" relative="1" as="geometry">
            <mxPoint x="489.5" y="260" as="sourcePoint" />
            <mxPoint x="489.5" y="290" as="targetPoint" />
            <Array as="points">
              <mxPoint x="489.5" y="280" />
            </Array>
          </mxGeometry>
        </mxCell>
        <mxCell id="5jO4WN8r6YL3hr1aLw4D-206" value="" style="endArrow=none;html=1;rounded=0;strokeWidth=4;strokeColor=#3399FF;" edge="1" parent="1">
          <mxGeometry width="50" height="50" relative="1" as="geometry">
            <mxPoint x="529.5" y="260" as="sourcePoint" />
            <mxPoint x="529.5" y="290" as="targetPoint" />
            <Array as="points">
              <mxPoint x="529.5" y="280" />
            </Array>
          </mxGeometry>
        </mxCell>
        <mxCell id="5jO4WN8r6YL3hr1aLw4D-207" value="" style="endArrow=none;html=1;rounded=0;strokeWidth=4;strokeColor=#3399FF;" edge="1" parent="1">
          <mxGeometry width="50" height="50" relative="1" as="geometry">
            <mxPoint x="569.5" y="260" as="sourcePoint" />
            <mxPoint x="569.5" y="290" as="targetPoint" />
            <Array as="points">
              <mxPoint x="569.5" y="280" />
            </Array>
          </mxGeometry>
        </mxCell>
        <mxCell id="5jO4WN8r6YL3hr1aLw4D-208" value="" style="endArrow=none;html=1;rounded=0;strokeWidth=4;strokeColor=#3399FF;" edge="1" parent="1">
          <mxGeometry width="50" height="50" relative="1" as="geometry">
            <mxPoint x="609.5" y="260" as="sourcePoint" />
            <mxPoint x="609.5" y="290" as="targetPoint" />
            <Array as="points">
              <mxPoint x="609.5" y="280" />
            </Array>
          </mxGeometry>
        </mxCell>
        <mxCell id="5jO4WN8r6YL3hr1aLw4D-209" value="" style="endArrow=none;html=1;rounded=0;strokeWidth=4;strokeColor=#3399FF;" edge="1" parent="1">
          <mxGeometry width="50" height="50" relative="1" as="geometry">
            <mxPoint x="649.5" y="260" as="sourcePoint" />
            <mxPoint x="649.5" y="290" as="targetPoint" />
            <Array as="points">
              <mxPoint x="649.5" y="280" />
            </Array>
          </mxGeometry>
        </mxCell>
        <mxCell id="5jO4WN8r6YL3hr1aLw4D-210" value="" style="endArrow=none;html=1;rounded=0;strokeWidth=4;strokeColor=#3399FF;" edge="1" parent="1">
          <mxGeometry width="50" height="50" relative="1" as="geometry">
            <mxPoint x="689.5" y="260" as="sourcePoint" />
            <mxPoint x="689.5" y="290" as="targetPoint" />
            <Array as="points">
              <mxPoint x="689.5" y="280" />
            </Array>
          </mxGeometry>
        </mxCell>
        <mxCell id="5jO4WN8r6YL3hr1aLw4D-211" value="" style="endArrow=none;html=1;rounded=0;strokeWidth=4;strokeColor=#3399FF;" edge="1" parent="1">
          <mxGeometry width="50" height="50" relative="1" as="geometry">
            <mxPoint x="249.5" y="260" as="sourcePoint" />
            <mxPoint x="249.5" y="290" as="targetPoint" />
            <Array as="points">
              <mxPoint x="249.5" y="280" />
            </Array>
          </mxGeometry>
        </mxCell>
        <mxCell id="5jO4WN8r6YL3hr1aLw4D-212" value="" style="endArrow=none;html=1;rounded=0;strokeWidth=4;strokeColor=#3399FF;" edge="1" parent="1">
          <mxGeometry width="50" height="50" relative="1" as="geometry">
            <mxPoint x="409.5" y="260" as="sourcePoint" />
            <mxPoint x="409.5" y="290" as="targetPoint" />
            <Array as="points">
              <mxPoint x="409.5" y="280" />
            </Array>
          </mxGeometry>
        </mxCell>
        <mxCell id="5jO4WN8r6YL3hr1aLw4D-213" value="" style="endArrow=none;html=1;rounded=0;strokeWidth=4;strokeColor=#3399FF;" edge="1" parent="1">
          <mxGeometry width="50" height="50" relative="1" as="geometry">
            <mxPoint x="369.5" y="260" as="sourcePoint" />
            <mxPoint x="369.5" y="290" as="targetPoint" />
            <Array as="points">
              <mxPoint x="369.5" y="280" />
            </Array>
          </mxGeometry>
        </mxCell>
        <mxCell id="5jO4WN8r6YL3hr1aLw4D-214" value="" style="endArrow=none;html=1;rounded=0;strokeWidth=4;strokeColor=#3399FF;" edge="1" parent="1">
          <mxGeometry width="50" height="50" relative="1" as="geometry">
            <mxPoint x="329.5" y="260" as="sourcePoint" />
            <mxPoint x="329.5" y="290" as="targetPoint" />
            <Array as="points">
              <mxPoint x="329.5" y="280" />
            </Array>
          </mxGeometry>
        </mxCell>
        <mxCell id="5jO4WN8r6YL3hr1aLw4D-215" value="" style="endArrow=none;html=1;rounded=0;strokeWidth=4;strokeColor=#3399FF;" edge="1" parent="1">
          <mxGeometry width="50" height="50" relative="1" as="geometry">
            <mxPoint x="209.5" y="260" as="sourcePoint" />
            <mxPoint x="209.5" y="290" as="targetPoint" />
            <Array as="points">
              <mxPoint x="209.5" y="280" />
            </Array>
          </mxGeometry>
        </mxCell>
        <mxCell id="5jO4WN8r6YL3hr1aLw4D-216" value="" style="endArrow=none;html=1;rounded=0;strokeWidth=4;strokeColor=#3399FF;" edge="1" parent="1">
          <mxGeometry width="50" height="50" relative="1" as="geometry">
            <mxPoint x="289.5" y="260" as="sourcePoint" />
            <mxPoint x="289.5" y="290" as="targetPoint" />
            <Array as="points">
              <mxPoint x="289.5" y="280" />
            </Array>
          </mxGeometry>
        </mxCell>
        <mxCell id="5jO4WN8r6YL3hr1aLw4D-217" value="" style="endArrow=none;html=1;rounded=0;strokeWidth=5;strokeColor=#EA6B66;" edge="1" parent="1">
          <mxGeometry width="50" height="50" relative="1" as="geometry">
            <mxPoint x="200" y="760" as="sourcePoint" />
            <mxPoint x="200" y="340" as="targetPoint" />
          </mxGeometry>
        </mxCell>
        <mxCell id="5jO4WN8r6YL3hr1aLw4D-218" value="" style="endArrow=none;html=1;rounded=0;strokeWidth=5;strokeColor=#EA6B66;" edge="1" parent="1">
          <mxGeometry width="50" height="50" relative="1" as="geometry">
            <mxPoint x="709" y="730" as="sourcePoint" />
            <mxPoint x="709" y="310" as="targetPoint" />
          </mxGeometry>
        </mxCell>
        <mxCell id="5jO4WN8r6YL3hr1aLw4D-220" value="" style="endArrow=none;html=1;rounded=0;strokeWidth=5;strokeColor=#EA6B66;" edge="1" parent="1">
          <mxGeometry width="50" height="50" relative="1" as="geometry">
            <mxPoint x="370" y="854.5" as="sourcePoint" />
            <mxPoint x="350" y="854.5" as="targetPoint" />
          </mxGeometry>
        </mxCell>
        <mxCell id="5jO4WN8r6YL3hr1aLw4D-222" value="" style="endArrow=none;html=1;rounded=0;strokeWidth=5;strokeColor=#EA6B66;" edge="1" parent="1">
          <mxGeometry width="50" height="50" relative="1" as="geometry">
            <mxPoint x="690" y="260" as="sourcePoint" />
            <mxPoint x="170" y="260" as="targetPoint" />
          </mxGeometry>
        </mxCell>
        <mxCell id="5jO4WN8r6YL3hr1aLw4D-223" value="" style="endArrow=none;html=1;rounded=0;strokeWidth=5;strokeColor=#EA6B66;" edge="1" parent="1">
          <mxGeometry width="50" height="50" relative="1" as="geometry">
            <mxPoint x="460" y="930" as="sourcePoint" />
            <mxPoint x="460" y="260" as="targetPoint" />
          </mxGeometry>
        </mxCell>
        <mxCell id="5jO4WN8r6YL3hr1aLw4D-203" value="Trash Point" style="shape=ext;double=1;whiteSpace=wrap;html=1;aspect=fixed;" vertex="1" parent="1">
          <mxGeometry x="430" y="727.5" width="45" height="45" as="geometry" />
        </mxCell>
        <mxCell id="5jO4WN8r6YL3hr1aLw4D-224" value="" style="endArrow=none;html=1;rounded=0;strokeWidth=5;strokeColor=#EA6B66;" edge="1" parent="1">
          <mxGeometry width="50" height="50" relative="1" as="geometry">
            <mxPoint x="200" y="340" as="sourcePoint" />
            <mxPoint x="169.5" y="260" as="targetPoint" />
          </mxGeometry>
        </mxCell>
        <mxCell id="5jO4WN8r6YL3hr1aLw4D-225" value="" style="endArrow=none;html=1;rounded=0;strokeWidth=5;strokeColor=#EA6B66;" edge="1" parent="1">
          <mxGeometry width="50" height="50" relative="1" as="geometry">
            <mxPoint x="710" y="310" as="sourcePoint" />
            <mxPoint x="690" y="260" as="targetPoint" />
          </mxGeometry>
        </mxCell>
        <mxCell id="5jO4WN8r6YL3hr1aLw4D-228" value="" style="endArrow=none;html=1;rounded=0;strokeWidth=5;strokeColor=#EA6B66;" edge="1" parent="1">
          <mxGeometry width="50" height="50" relative="1" as="geometry">
            <mxPoint x="450" y="854.5" as="sourcePoint" />
            <mxPoint x="430" y="854.5" as="targetPoint" />
          </mxGeometry>
        </mxCell>
        <mxCell id="5jO4WN8r6YL3hr1aLw4D-104" value="Propane" style="ellipse;whiteSpace=wrap;html=1;" vertex="1" parent="1">
          <mxGeometry x="440" y="840" width="60" height="30" as="geometry" />
        </mxCell>
        <mxCell id="5jO4WN8r6YL3hr1aLw4D-229" style="edgeStyle=orthogonalEdgeStyle;rounded=0;orthogonalLoop=1;jettySize=auto;html=1;exitX=0.5;exitY=1;exitDx=0;exitDy=0;" edge="1" parent="1" source="5jO4WN8r6YL3hr1aLw4D-105" target="5jO4WN8r6YL3hr1aLw4D-105">
          <mxGeometry relative="1" as="geometry" />
        </mxCell>
        <mxCell id="5jO4WN8r6YL3hr1aLw4D-231" value="Office" style="rounded=0;whiteSpace=wrap;html=1;" vertex="1" parent="1">
          <mxGeometry x="510" y="830" width="60" height="40" as="geometry" />
        </mxCell>
        <mxCell id="5jO4WN8r6YL3hr1aLw4D-105" value="B/U Gen." style="rounded=1;whiteSpace=wrap;html=1;" vertex="1" parent="1">
          <mxGeometry x="365" y="840" width="65" height="30" as="geometry" />
        </mxCell>
        <mxCell id="5jO4WN8r6YL3hr1aLw4D-233" value="" style="endArrow=none;html=1;rounded=0;strokeWidth=5;strokeColor=#EA6B66;" edge="1" parent="1">
          <mxGeometry width="50" height="50" relative="1" as="geometry">
            <mxPoint x="460" y="719" as="sourcePoint" />
            <mxPoint x="440" y="719" as="targetPoint" />
          </mxGeometry>
        </mxCell>
        <mxCell id="5jO4WN8r6YL3hr1aLw4D-234" value="" style="endArrow=none;html=1;rounded=0;strokeWidth=5;strokeColor=#EA6B66;" edge="1" parent="1">
          <mxGeometry width="50" height="50" relative="1" as="geometry">
            <mxPoint x="460" y="679" as="sourcePoint" />
            <mxPoint x="440" y="679" as="targetPoint" />
          </mxGeometry>
        </mxCell>
        <mxCell id="5jO4WN8r6YL3hr1aLw4D-235" value="" style="endArrow=none;html=1;rounded=0;strokeWidth=5;strokeColor=#EA6B66;" edge="1" parent="1">
          <mxGeometry width="50" height="50" relative="1" as="geometry">
            <mxPoint x="460" y="639" as="sourcePoint" />
            <mxPoint x="440" y="639" as="targetPoint" />
          </mxGeometry>
        </mxCell>
        <mxCell id="5jO4WN8r6YL3hr1aLw4D-236" value="" style="endArrow=none;html=1;rounded=0;strokeWidth=5;strokeColor=#EA6B66;" edge="1" parent="1">
          <mxGeometry width="50" height="50" relative="1" as="geometry">
            <mxPoint x="460" y="594" as="sourcePoint" />
            <mxPoint x="440" y="594" as="targetPoint" />
          </mxGeometry>
        </mxCell>
        <mxCell id="5jO4WN8r6YL3hr1aLw4D-237" value="" style="endArrow=none;html=1;rounded=0;strokeWidth=5;strokeColor=#EA6B66;" edge="1" parent="1">
          <mxGeometry width="50" height="50" relative="1" as="geometry">
            <mxPoint x="460" y="559" as="sourcePoint" />
            <mxPoint x="440" y="559" as="targetPoint" />
          </mxGeometry>
        </mxCell>
        <mxCell id="5jO4WN8r6YL3hr1aLw4D-238" value="" style="endArrow=none;html=1;rounded=0;strokeWidth=5;strokeColor=#EA6B66;" edge="1" parent="1">
          <mxGeometry width="50" height="50" relative="1" as="geometry">
            <mxPoint x="460" y="519" as="sourcePoint" />
            <mxPoint x="440" y="519" as="targetPoint" />
          </mxGeometry>
        </mxCell>
        <mxCell id="5jO4WN8r6YL3hr1aLw4D-239" value="" style="endArrow=none;html=1;rounded=0;strokeWidth=5;strokeColor=#EA6B66;" edge="1" parent="1">
          <mxGeometry width="50" height="50" relative="1" as="geometry">
            <mxPoint x="460" y="479" as="sourcePoint" />
            <mxPoint x="440" y="479" as="targetPoint" />
          </mxGeometry>
        </mxCell>
        <mxCell id="5jO4WN8r6YL3hr1aLw4D-240" value="" style="endArrow=none;html=1;rounded=0;strokeWidth=5;strokeColor=#EA6B66;" edge="1" parent="1">
          <mxGeometry width="50" height="50" relative="1" as="geometry">
            <mxPoint x="460" y="440" as="sourcePoint" />
            <mxPoint x="440" y="440" as="targetPoint" />
          </mxGeometry>
        </mxCell>
        <mxCell id="5jO4WN8r6YL3hr1aLw4D-241" value="" style="endArrow=none;html=1;rounded=0;strokeWidth=5;strokeColor=#EA6B66;" edge="1" parent="1">
          <mxGeometry width="50" height="50" relative="1" as="geometry">
            <mxPoint x="460" y="399" as="sourcePoint" />
            <mxPoint x="440" y="399" as="targetPoint" />
          </mxGeometry>
        </mxCell>
        <mxCell id="5jO4WN8r6YL3hr1aLw4D-242" value="" style="endArrow=none;html=1;rounded=0;strokeWidth=5;strokeColor=#EA6B66;" edge="1" parent="1">
          <mxGeometry width="50" height="50" relative="1" as="geometry">
            <mxPoint x="460" y="359" as="sourcePoint" />
            <mxPoint x="440" y="359" as="targetPoint" />
          </mxGeometry>
        </mxCell>
        <mxCell id="5jO4WN8r6YL3hr1aLw4D-243" value="" style="image;points=[];aspect=fixed;html=1;align=center;shadow=0;dashed=0;image=img/lib/allied_telesis/wireless/Access_Point_Outdoor.svg;" vertex="1" parent="1">
          <mxGeometry x="460" y="215" width="10.36" height="40" as="geometry" />
        </mxCell>
        <mxCell id="5jO4WN8r6YL3hr1aLw4D-247" value="" style="image;points=[];aspect=fixed;html=1;align=center;shadow=0;dashed=0;image=img/lib/allied_telesis/wireless/Access_Point_Outdoor.svg;" vertex="1" parent="1">
          <mxGeometry x="720" y="255" width="10.36" height="40" as="geometry" />
        </mxCell>
        <mxCell id="5jO4WN8r6YL3hr1aLw4D-248" value="" style="image;points=[];aspect=fixed;html=1;align=center;shadow=0;dashed=0;image=img/lib/allied_telesis/wireless/Access_Point_Outdoor.svg;" vertex="1" parent="1">
          <mxGeometry x="130" y="270" width="10.36" height="40" as="geometry" />
        </mxCell>
        <mxCell id="5jO4WN8r6YL3hr1aLw4D-249" value="" style="image;points=[];aspect=fixed;html=1;align=center;shadow=0;dashed=0;image=img/lib/allied_telesis/wireless/Access_Point_Outdoor.svg;" vertex="1" parent="1">
          <mxGeometry x="339.64" y="390" width="10.36" height="40" as="geometry" />
        </mxCell>
        <mxCell id="5jO4WN8r6YL3hr1aLw4D-252" value="" style="image;points=[];aspect=fixed;html=1;align=center;shadow=0;dashed=0;image=img/lib/allied_telesis/wireless/Access_Point_Outdoor.svg;" vertex="1" parent="1">
          <mxGeometry x="110" y="750" width="10.36" height="40" as="geometry" />
        </mxCell>
        <mxCell id="5jO4WN8r6YL3hr1aLw4D-253" value="" style="image;points=[];aspect=fixed;html=1;align=center;shadow=0;dashed=0;image=img/lib/allied_telesis/wireless/Access_Point_Outdoor.svg;" vertex="1" parent="1">
          <mxGeometry x="715" y="730" width="10.36" height="40" as="geometry" />
        </mxCell>
        <mxCell id="5jO4WN8r6YL3hr1aLw4D-254" value="" style="image;points=[];aspect=fixed;html=1;align=center;shadow=0;dashed=0;image=img/lib/allied_telesis/wireless/Access_Point_Outdoor.svg;" vertex="1" parent="1">
          <mxGeometry x="119.63999999999999" y="520" width="10.36" height="40" as="geometry" />
        </mxCell>
        <mxCell id="5jO4WN8r6YL3hr1aLw4D-256" value="" style="image;points=[];aspect=fixed;html=1;align=center;shadow=0;dashed=0;image=img/lib/allied_telesis/wireless/Access_Point_Outdoor.svg;" vertex="1" parent="1">
          <mxGeometry x="749.8199999999999" y="510" width="10.36" height="40" as="geometry" />
        </mxCell>
        <mxCell id="5jO4WN8r6YL3hr1aLw4D-257" value="" style="image;points=[];aspect=fixed;html=1;align=center;shadow=0;dashed=0;image=img/lib/allied_telesis/wireless/Access_Point_Outdoor.svg;" vertex="1" parent="1">
          <mxGeometry x="329.64" y="585" width="10.36" height="40" as="geometry" />
        </mxCell>
        <mxCell id="5jO4WN8r6YL3hr1aLw4D-258" value="" style="endArrow=none;html=1;rounded=0;strokeWidth=1;strokeColor=#FF8000;exitX=0.29;exitY=0.5;exitDx=0;exitDy=0;exitPerimeter=0;entryX=0.71;entryY=0.525;entryDx=0;entryDy=0;entryPerimeter=0;" edge="1" parent="1" source="5jO4WN8r6YL3hr1aLw4D-248" target="5jO4WN8r6YL3hr1aLw4D-254">
          <mxGeometry width="50" height="50" relative="1" as="geometry">
            <mxPoint x="-150" y="450" as="sourcePoint" />
            <mxPoint x="100" y="310" as="targetPoint" />
          </mxGeometry>
        </mxCell>
        <mxCell id="5jO4WN8r6YL3hr1aLw4D-261" value="" style="endArrow=none;html=1;rounded=0;strokeWidth=3;strokeColor=#FF8000;" edge="1" parent="1">
          <mxGeometry width="50" height="50" relative="1" as="geometry">
            <mxPoint x="100" y="900" as="sourcePoint" />
            <mxPoint x="810" y="900" as="targetPoint" />
          </mxGeometry>
        </mxCell>
        <mxCell id="5jO4WN8r6YL3hr1aLw4D-262" value="" style="endArrow=none;html=1;rounded=0;strokeWidth=3;strokeColor=#FF8000;" edge="1" parent="1">
          <mxGeometry width="50" height="50" relative="1" as="geometry">
            <mxPoint x="540" y="900" as="sourcePoint" />
            <mxPoint x="540" y="870" as="targetPoint" />
          </mxGeometry>
        </mxCell>
        <mxCell id="5jO4WN8r6YL3hr1aLw4D-263" value="" style="image;points=[];aspect=fixed;html=1;align=center;shadow=0;dashed=0;image=img/lib/allied_telesis/wireless/Access_Point_Outdoor.svg;" vertex="1" parent="1">
          <mxGeometry x="-190" y="320" width="10.36" height="40" as="geometry" />
        </mxCell>
        <mxCell id="5jO4WN8r6YL3hr1aLw4D-265" value="" style="image;points=[];aspect=fixed;html=1;align=center;shadow=0;dashed=0;image=img/lib/allied_telesis/wireless/Access_Point_Outdoor.svg;" vertex="1" parent="1">
          <mxGeometry x="559.64" y="585" width="10.36" height="40" as="geometry" />
        </mxCell>
        <mxCell id="5jO4WN8r6YL3hr1aLw4D-266" value="" style="image;points=[];aspect=fixed;html=1;align=center;shadow=0;dashed=0;image=img/lib/allied_telesis/wireless/Access_Point_Outdoor.svg;" vertex="1" parent="1">
          <mxGeometry x="550" y="390" width="10.36" height="40" as="geometry" />
        </mxCell>
        <mxCell id="5jO4WN8r6YL3hr1aLw4D-267" value="" style="endArrow=none;html=1;rounded=0;strokeWidth=1;strokeColor=#FF8000;entryX=0.676;entryY=0.525;entryDx=0;entryDy=0;entryPerimeter=0;exitX=0.386;exitY=0.55;exitDx=0;exitDy=0;exitPerimeter=0;" edge="1" parent="1" source="5jO4WN8r6YL3hr1aLw4D-243" target="5jO4WN8r6YL3hr1aLw4D-248">
          <mxGeometry width="50" height="50" relative="1" as="geometry">
            <mxPoint x="-140" y="460" as="sourcePoint" />
            <mxPoint x="-20" y="340" as="targetPoint" />
          </mxGeometry>
        </mxCell>
        <mxCell id="5jO4WN8r6YL3hr1aLw4D-268" value="" style="endArrow=none;html=1;rounded=0;strokeWidth=1;strokeColor=#FF8000;entryX=0.483;entryY=0.575;entryDx=0;entryDy=0;entryPerimeter=0;exitX=0.193;exitY=0.55;exitDx=0;exitDy=0;exitPerimeter=0;" edge="1" parent="1" source="5jO4WN8r6YL3hr1aLw4D-247" target="5jO4WN8r6YL3hr1aLw4D-243">
          <mxGeometry width="50" height="50" relative="1" as="geometry">
            <mxPoint x="-130" y="470" as="sourcePoint" />
            <mxPoint x="-10" y="350" as="targetPoint" />
          </mxGeometry>
        </mxCell>
        <mxCell id="5jO4WN8r6YL3hr1aLw4D-269" value="" style="endArrow=none;html=1;rounded=0;strokeWidth=1;strokeColor=#FF8000;entryX=0.386;entryY=0.6;entryDx=0;entryDy=0;entryPerimeter=0;exitX=0.403;exitY=0.55;exitDx=0;exitDy=0;exitPerimeter=0;" edge="1" parent="1" source="5jO4WN8r6YL3hr1aLw4D-256" target="5jO4WN8r6YL3hr1aLw4D-247">
          <mxGeometry width="50" height="50" relative="1" as="geometry">
            <mxPoint x="-120" y="480" as="sourcePoint" />
            <mxPoint y="360" as="targetPoint" />
          </mxGeometry>
        </mxCell>
        <mxCell id="5jO4WN8r6YL3hr1aLw4D-270" value="" style="endArrow=none;html=1;rounded=0;strokeWidth=1;strokeColor=#FF8000;entryX=0.807;entryY=0.6;entryDx=0;entryDy=0;entryPerimeter=0;exitX=0.517;exitY=0.6;exitDx=0;exitDy=0;exitPerimeter=0;" edge="1" parent="1" source="5jO4WN8r6YL3hr1aLw4D-249" target="5jO4WN8r6YL3hr1aLw4D-265">
          <mxGeometry width="50" height="50" relative="1" as="geometry">
            <mxPoint x="-110" y="490" as="sourcePoint" />
            <mxPoint x="10" y="370" as="targetPoint" />
          </mxGeometry>
        </mxCell>
        <mxCell id="5jO4WN8r6YL3hr1aLw4D-271" value="" style="endArrow=none;html=1;rounded=0;strokeWidth=1;strokeColor=#FF8000;entryX=0.483;entryY=0.6;entryDx=0;entryDy=0;entryPerimeter=0;exitX=-0.062;exitY=0.425;exitDx=0;exitDy=0;exitPerimeter=0;" edge="1" parent="1" source="5jO4WN8r6YL3hr1aLw4D-257" target="5jO4WN8r6YL3hr1aLw4D-266">
          <mxGeometry width="50" height="50" relative="1" as="geometry">
            <mxPoint x="-100" y="500" as="sourcePoint" />
            <mxPoint x="20" y="380" as="targetPoint" />
          </mxGeometry>
        </mxCell>
        <mxCell id="5jO4WN8r6YL3hr1aLw4D-272" value="" style="endArrow=none;html=1;rounded=0;strokeWidth=1;strokeColor=#FF8000;" edge="1" parent="1">
          <mxGeometry width="50" height="50" relative="1" as="geometry">
            <mxPoint x="350" y="410" as="sourcePoint" />
            <mxPoint x="140" y="290" as="targetPoint" />
          </mxGeometry>
        </mxCell>
        <mxCell id="5jO4WN8r6YL3hr1aLw4D-273" value="" style="endArrow=none;html=1;rounded=0;strokeWidth=1;strokeColor=#FF8000;entryX=0.965;entryY=0.625;entryDx=0;entryDy=0;entryPerimeter=0;exitX=0.324;exitY=0.625;exitDx=0;exitDy=0;exitPerimeter=0;" edge="1" parent="1" source="5jO4WN8r6YL3hr1aLw4D-249" target="5jO4WN8r6YL3hr1aLw4D-243">
          <mxGeometry width="50" height="50" relative="1" as="geometry">
            <mxPoint x="-80" y="520" as="sourcePoint" />
            <mxPoint x="40" y="400" as="targetPoint" />
          </mxGeometry>
        </mxCell>
        <mxCell id="5jO4WN8r6YL3hr1aLw4D-274" value="" style="endArrow=none;html=1;rounded=0;strokeWidth=1;strokeColor=#FF8000;entryX=0.421;entryY=0.6;entryDx=0;entryDy=0;entryPerimeter=0;exitX=0.614;exitY=0.575;exitDx=0;exitDy=0;exitPerimeter=0;" edge="1" parent="1" source="5jO4WN8r6YL3hr1aLw4D-254" target="5jO4WN8r6YL3hr1aLw4D-249">
          <mxGeometry width="50" height="50" relative="1" as="geometry">
            <mxPoint x="-70" y="530" as="sourcePoint" />
            <mxPoint x="50" y="410" as="targetPoint" />
          </mxGeometry>
        </mxCell>
        <mxCell id="5jO4WN8r6YL3hr1aLw4D-275" value="" style="endArrow=none;html=1;rounded=0;strokeWidth=1;strokeColor=#FF8000;entryX=0.421;entryY=0.375;entryDx=0;entryDy=0;entryPerimeter=0;exitX=0.483;exitY=0.7;exitDx=0;exitDy=0;exitPerimeter=0;" edge="1" parent="1" source="5jO4WN8r6YL3hr1aLw4D-252" target="5jO4WN8r6YL3hr1aLw4D-257">
          <mxGeometry width="50" height="50" relative="1" as="geometry">
            <mxPoint x="-90" y="510" as="sourcePoint" />
            <mxPoint x="30" y="390" as="targetPoint" />
          </mxGeometry>
        </mxCell>
        <mxCell id="5jO4WN8r6YL3hr1aLw4D-276" value="" style="endArrow=none;html=1;rounded=0;strokeWidth=1;strokeColor=#FF8000;entryX=0.483;entryY=0.6;entryDx=0;entryDy=0;entryPerimeter=0;exitX=0.144;exitY=0.35;exitDx=0;exitDy=0;exitPerimeter=0;" edge="1" parent="1" source="5jO4WN8r6YL3hr1aLw4D-20" target="5jO4WN8r6YL3hr1aLw4D-252">
          <mxGeometry width="50" height="50" relative="1" as="geometry">
            <mxPoint x="-80" y="520" as="sourcePoint" />
            <mxPoint x="40" y="400" as="targetPoint" />
          </mxGeometry>
        </mxCell>
        <mxCell id="5jO4WN8r6YL3hr1aLw4D-277" value="" style="endArrow=none;html=1;rounded=0;strokeWidth=1;strokeColor=#FF8000;entryX=0.421;entryY=0.625;entryDx=0;entryDy=0;entryPerimeter=0;exitX=0.71;exitY=0.675;exitDx=0;exitDy=0;exitPerimeter=0;" edge="1" parent="1" source="5jO4WN8r6YL3hr1aLw4D-254" target="5jO4WN8r6YL3hr1aLw4D-257">
          <mxGeometry width="50" height="50" relative="1" as="geometry">
            <mxPoint x="-70" y="530" as="sourcePoint" />
            <mxPoint x="50" y="410" as="targetPoint" />
          </mxGeometry>
        </mxCell>
        <mxCell id="5jO4WN8r6YL3hr1aLw4D-278" value="" style="endArrow=none;html=1;rounded=0;strokeWidth=1;strokeColor=#FF8000;entryX=0.483;entryY=0.325;entryDx=0;entryDy=0;entryPerimeter=0;exitX=0.29;exitY=0.35;exitDx=0;exitDy=0;exitPerimeter=0;" edge="1" parent="1" source="5jO4WN8r6YL3hr1aLw4D-266" target="5jO4WN8r6YL3hr1aLw4D-243">
          <mxGeometry width="50" height="50" relative="1" as="geometry">
            <mxPoint x="-60" y="540" as="sourcePoint" />
            <mxPoint x="60" y="420" as="targetPoint" />
          </mxGeometry>
        </mxCell>
        <mxCell id="5jO4WN8r6YL3hr1aLw4D-279" value="" style="endArrow=none;html=1;rounded=0;strokeWidth=1;strokeColor=#FF8000;entryX=0.579;entryY=0.525;entryDx=0;entryDy=0;entryPerimeter=0;exitX=0.676;exitY=0.45;exitDx=0;exitDy=0;exitPerimeter=0;" edge="1" parent="1" source="5jO4WN8r6YL3hr1aLw4D-266" target="5jO4WN8r6YL3hr1aLw4D-247">
          <mxGeometry width="50" height="50" relative="1" as="geometry">
            <mxPoint x="-50" y="550" as="sourcePoint" />
            <mxPoint x="70" y="430" as="targetPoint" />
          </mxGeometry>
        </mxCell>
        <mxCell id="5jO4WN8r6YL3hr1aLw4D-280" value="" style="endArrow=none;html=1;rounded=0;strokeWidth=1;strokeColor=#FF8000;" edge="1" parent="1">
          <mxGeometry width="50" height="50" relative="1" as="geometry">
            <mxPoint x="-100" y="500" as="sourcePoint" />
            <mxPoint x="20" y="380" as="targetPoint" />
          </mxGeometry>
        </mxCell>
        <mxCell id="5jO4WN8r6YL3hr1aLw4D-281" value="" style="endArrow=none;html=1;rounded=0;strokeWidth=1;strokeColor=#FF8000;entryX=0.21;entryY=0.425;entryDx=0;entryDy=0;entryPerimeter=0;" edge="1" parent="1" target="5jO4WN8r6YL3hr1aLw4D-289">
          <mxGeometry width="50" height="50" relative="1" as="geometry">
            <mxPoint x="130" y="770" as="sourcePoint" />
            <mxPoint x="20" y="840" as="targetPoint" />
          </mxGeometry>
        </mxCell>
        <mxCell id="5jO4WN8r6YL3hr1aLw4D-282" value="" style="endArrow=none;html=1;rounded=0;strokeWidth=1;strokeColor=#FF8000;exitX=0.483;exitY=0.25;exitDx=0;exitDy=0;exitPerimeter=0;" edge="1" parent="1" source="5jO4WN8r6YL3hr1aLw4D-253">
          <mxGeometry width="50" height="50" relative="1" as="geometry">
            <mxPoint x="-80" y="520" as="sourcePoint" />
            <mxPoint x="570" y="610" as="targetPoint" />
          </mxGeometry>
        </mxCell>
        <mxCell id="5jO4WN8r6YL3hr1aLw4D-283" value="" style="endArrow=none;html=1;rounded=0;strokeWidth=1;strokeColor=#FF8000;entryX=0.79;entryY=0.575;entryDx=0;entryDy=0;entryPerimeter=0;exitX=0.772;exitY=0.65;exitDx=0;exitDy=0;exitPerimeter=0;" edge="1" parent="1" source="5jO4WN8r6YL3hr1aLw4D-266" target="5jO4WN8r6YL3hr1aLw4D-256">
          <mxGeometry width="50" height="50" relative="1" as="geometry">
            <mxPoint x="-70" y="530" as="sourcePoint" />
            <mxPoint x="50" y="410" as="targetPoint" />
          </mxGeometry>
        </mxCell>
        <mxCell id="5jO4WN8r6YL3hr1aLw4D-284" value="" style="endArrow=none;html=1;rounded=0;strokeWidth=1;strokeColor=#FF8000;" edge="1" parent="1">
          <mxGeometry width="50" height="50" relative="1" as="geometry">
            <mxPoint x="330" y="610" as="sourcePoint" />
            <mxPoint x="570" y="610" as="targetPoint" />
          </mxGeometry>
        </mxCell>
        <mxCell id="5jO4WN8r6YL3hr1aLw4D-285" value="" style="endArrow=none;html=1;rounded=0;strokeWidth=1;strokeColor=#FF8000;entryX=0.903;entryY=0.125;entryDx=0;entryDy=0;entryPerimeter=0;exitX=0.5;exitY=0.55;exitDx=0;exitDy=0;exitPerimeter=0;" edge="1" parent="1" source="5jO4WN8r6YL3hr1aLw4D-289" target="5jO4WN8r6YL3hr1aLw4D-265">
          <mxGeometry width="50" height="50" relative="1" as="geometry">
            <mxPoint x="-90" y="510" as="sourcePoint" />
            <mxPoint x="30" y="390" as="targetPoint" />
          </mxGeometry>
        </mxCell>
        <mxCell id="5jO4WN8r6YL3hr1aLw4D-286" value="" style="endArrow=none;html=1;rounded=0;strokeWidth=1;strokeColor=#FF8000;entryX=0.5;entryY=0.825;entryDx=0;entryDy=0;entryPerimeter=0;exitX=0.579;exitY=0.425;exitDx=0;exitDy=0;exitPerimeter=0;" edge="1" parent="1" source="5jO4WN8r6YL3hr1aLw4D-253" target="5jO4WN8r6YL3hr1aLw4D-256">
          <mxGeometry width="50" height="50" relative="1" as="geometry">
            <mxPoint x="-80" y="520" as="sourcePoint" />
            <mxPoint x="40" y="400" as="targetPoint" />
          </mxGeometry>
        </mxCell>
        <mxCell id="5jO4WN8r6YL3hr1aLw4D-287" value="" style="endArrow=none;html=1;rounded=0;strokeWidth=1;strokeColor=#FF8000;entryX=0.035;entryY=0.125;entryDx=0;entryDy=0;entryPerimeter=0;exitX=0;exitY=0;exitDx=0;exitDy=0;" edge="1" parent="1" source="5jO4WN8r6YL3hr1aLw4D-231" target="5jO4WN8r6YL3hr1aLw4D-257">
          <mxGeometry width="50" height="50" relative="1" as="geometry">
            <mxPoint x="-70" y="530" as="sourcePoint" />
            <mxPoint x="50" y="410" as="targetPoint" />
          </mxGeometry>
        </mxCell>
        <mxCell id="5jO4WN8r6YL3hr1aLw4D-288" value="" style="endArrow=none;html=1;rounded=0;strokeWidth=1;strokeColor=#FF8000;entryX=0.29;entryY=0.55;entryDx=0;entryDy=0;entryPerimeter=0;exitX=0.79;exitY=0.475;exitDx=0;exitDy=0;exitPerimeter=0;" edge="1" parent="1" source="5jO4WN8r6YL3hr1aLw4D-289" target="5jO4WN8r6YL3hr1aLw4D-253">
          <mxGeometry width="50" height="50" relative="1" as="geometry">
            <mxPoint x="-150" y="820" as="sourcePoint" />
            <mxPoint x="-30" y="700" as="targetPoint" />
          </mxGeometry>
        </mxCell>
        <mxCell id="5jO4WN8r6YL3hr1aLw4D-289" value="" style="image;points=[];aspect=fixed;html=1;align=center;shadow=0;dashed=0;image=img/lib/allied_telesis/wireless/Access_Point_Outdoor.svg;" vertex="1" parent="1">
          <mxGeometry x="499.82" y="810" width="10.36" height="40" as="geometry" />
        </mxCell>
      </root>
    </mxGraphModel>
  </diagram>
</mxfile>
